<?xml version="1.0" encoding="UTF-8"?>
<svg id="Layer_1" data-name="Layer 1" xmlns="http://www.w3.org/2000/svg" viewBox="0 0 292.47 320.28">
  <defs>
    <style>
      .cls-1 {
        fill: #fff;
      }

      .cls-2 {
        letter-spacing: -.04em;
      }

      .cls-3 {
        font-family: ArialMT, Arial;
        font-size: 28.42px;
      }

      .cls-4 {
        letter-spacing: 0em;
      }
    </style>
  </defs>
  <path class="cls-1" d="m46.09,18.4c-8.2,10.1-15.2,18.5-15.5,18.8s-3.5,4.1-7,8.5c-3.6,4.4-9.1,11.1-12.2,14.9-3.2,3.8-5.8,7.2-5.8,7.6s2.6,2.7,5.7,5.1c10.2,7.6,14.6,14.5,16.3,25.5,1.8,11-.2,18.4-11,40.2C6.09,160.2,2.19,171.1.49,183.8c-2.3,18,3.6,38,15.6,52.9,14.2,17.7,38.7,33.8,69,45.5,28.7,11.1,43,19.3,53.9,31.2,3.5,3.7,6.7,6.8,7,6.8.4,0,4.2-3.5,8.4-7.8,12.1-12.3,20.1-17,49.6-28.8,31.9-12.8,49.6-23.4,65.2-38.9,10-10,15.5-18.2,18.8-28.2,5.2-16,5.7-27,2.2-42.4-2.4-10.2-4-14.1-13.6-33.4-10.2-20.4-12.4-27.6-11.8-38,.8-11.9,7.9-23.7,18.1-30.2,2-1.3,3.7-2.9,3.7-3.7,0-.7-8.8-12.1-19.6-25.2-10.8-13.2-22-26.8-24.9-30.4s-6.6-8-8.2-9.9l-2.9-3.3-13.9,5.2c-26.1,9.7-55.2,14.8-78.6,13.7-22-1.1-51.2-8-69.9-16.6-2.5-1.1-5.2-2.1-6.1-2.1s-8.3,8.2-16.4,18.2h0Z"/>
  <path class="cls-1" d="m146.07,316.54c-1.18-1.13-2.96-2.92-5.02-5.09-11.14-12.17-25.53-20.52-54.94-31.9-29.9-11.55-53.99-27.4-67.81-44.63-11.44-14.2-17.19-33.66-15-50.77,1.66-12.38,5.5-23.06,15.83-43.9,11.07-22.35,13.18-30.19,11.26-41.92-1.8-11.66-6.68-19.33-17.4-27.32-1.64-1.27-2.94-2.36-3.82-3.14.91-1.22,2.41-3.11,4.39-5.46,1.9-2.33,4.66-5.69,7.34-8.96l4.89-5.97c3.43-4.31,6.46-7.92,6.85-8.33.48-.47,8.27-9.88,15.66-18.98,7.26-8.96,12.81-15.1,14.83-16.97.89.27,2.4.83,4.33,1.68,18.77,8.63,48.61,15.72,70.9,16.84,2.14.1,4.34.15,6.57.15,22.51,0,49.17-5.11,73.15-14.02l12.07-4.52,1.61,1.83c3.37,4,6.11,7.31,8.12,9.81,1.65,2.05,5.94,7.27,11.36,13.88,4.12,5.02,8.88,10.82,13.55,16.54,9.18,11.14,16.1,20.04,18.42,23.31-.44.39-1.06.89-1.87,1.41-10.91,6.95-18.53,19.67-19.38,32.39-.63,11.01,1.74,18.75,12.09,39.46,9.54,19.18,11.04,22.86,13.38,32.78,3.43,15.09,2.89,25.41-2.14,40.87-3.13,9.5-8.38,17.35-18.11,27.07-15.37,15.28-32.79,25.65-64.25,38.27-29.62,11.85-38.13,16.8-50.57,29.44-2.63,2.69-4.9,4.86-6.3,6.13Z"/>
  <g>
    <g>
      <path d="m46.13,18.48c-8.2,10.1-15.2,18.5-15.5,18.8s-3.5,4.1-7,8.5c-3.6,4.4-9.1,11.1-12.2,14.9-3.2,3.8-5.8,7.2-5.8,7.6s2.6,2.7,5.7,5.1c10.2,7.6,14.6,14.5,16.3,25.5,1.8,11-.2,18.4-11,40.2C6.13,160.28,2.23,171.18.53,183.88c-2.3,18,3.6,38,15.6,52.9,14.2,17.7,38.7,33.8,69,45.5,28.7,11.1,43,19.3,53.9,31.2,3.5,3.7,6.7,6.8,7,6.8.4,0,4.2-3.5,8.4-7.8,12.1-12.3,20.1-17,49.6-28.8,31.9-12.8,49.6-23.4,65.2-38.9,10-10,15.5-18.2,18.8-28.2,5.2-16,5.7-27,2.2-42.4-2.4-10.2-4-14.1-13.6-33.4-10.2-20.4-12.4-27.6-11.8-38,.8-11.9,7.9-23.7,18.1-30.2,2-1.3,3.7-2.9,3.7-3.7,0-.7-8.8-12.1-19.6-25.2-10.8-13.2-22-26.8-24.9-30.4s-6.6-8-8.2-9.9l-2.9-3.3-13.9,5.2c-26.1,9.7-55.2,14.8-78.6,13.7-22-1.1-51.2-8-69.9-16.6-2.5-1.1-5.2-2.1-6.1-2.1s-8.3,8.2-16.4,18.2Zm25.8-10.7c20.7,8.5,44.5,13.5,67.9,14.2,28.2.9,53.2-3.5,80.8-14.1,9.3-3.6,9.5-3.7,11-1.7,5.6,7.2,22,27.3,24.9,30.6,5.6,6.3,24.6,29.6,24.9,30.6.2.4-2.8,3.8-6.7,7.4-3.9,3.7-7.8,8.4-8.8,10.6l-1.8,3.8-117.6.1H28.83l-1.3-3.2c-1.5-3.8-12.3-15.5-15-16.3-1-.4-1.9-1-1.9-1.5,0-.6,5.7-7.8,12.6-16.2s18.5-22.6,25.8-31.5c7.2-8.9,13.4-16.2,13.8-16.3.4,0,4.5,1.6,9.1,3.5Zm143,85.5h47.7l-.7,2.7c-1.3,4.8-.6,17.5,1.5,24.3,1,3.6,2.1,7.1,2.3,7.9.3,1.1-19.2,1.3-119.1,1.1-65.7-.1-119.6-.3-119.8-.5s.6-3.2,1.9-6.7c1.9-5.2,2.3-8.3,2.4-18.2v-11.9l68,.6c37.4.4,89.5.7,115.8.7ZM56.63,198.88c0,58.1-.2,65.5-1.5,65-4.9-1.8-19.9-13.1-28.1-21l-9.4-9.1v-88.6l3-5.9,3-6h33v65.6Zm73,17.3v83l-6.2-3.5c-7.1-4-17.3-8.9-27-12.9l-6.8-2.8v-146.7h40v82.9Zm72.8-9.3l-.3,73.5-7.3,3c-9.6,3.8-20.5,9-26.9,12.8l-5.3,3.1v-166h40l-.2,73.6Zm69.8-66.5l3.6,7.2-.4,42.6-.3,42.6-3,4c-5,6.5-22.8,20.6-35.2,27.9-1,.6-1.3-12.8-1.3-65.3v-66.1h33l3.6,7.1Z"/>
      <path d="m101.63,30.98c-.8.3-3,1.4-4.8,2.5l-3.3,2,2.8,3c2.4,2.5,2.8,3.8,3.1,10.3l.4,7.5h-4.8c-3.1,0-6.1-.7-8.2-2-1.8-1.1-3.5-2-3.8-2s.7,2.3,2.2,5c5.2,9.5,13.2,15.1,30.8,21.4,3.9,1.4,7.1,2.4,7.3,2.3.1-.2-1.8-1.8-4.3-3.6-2.6-1.8-4.4-3.5-4.1-3.8.3-.2,3.6.2,7.4,1.1,6.8,1.5,36.1,4.1,37,3.2.3-.2-1.1-1.2-3.1-2.1-4.3-2-4.7-4.7-1.2-8.6,2.2-2.6,2.7-2.6,17.7-3.2,8.5-.4,19.7-.7,25-.7h9.6l1.2-5.7c.6-3.1.9-5.8.7-6-.2-.3-10.9,1.6-23.7,4.1-30.7,6.1-35.1,6.5-41.4,3.7-10.5-4.7-11.1-7.6-1.7-8.4,13.2-1.1,29.2-5.3,42.2-11l5-2.2h-18.8c-10.3,0-23-.3-28.2-.8l-9.5-.7-2,3.7c-1.9,3.5-6.7,7.3-9.2,7.3-.7,0-1.7-1.9-2.4-4.3-1.7-6.4-3.6-9.5-6.9-11.2-2.9-1.5-8.1-1.9-11-.8Zm3.5,27c.9,2.1,2.8,5.1,4.3,6.7,2.1,2.2,2.2,2.6.7,1.8-3.4-1.7-6.4-5.6-7.1-9-.9-4.3.2-4,2.1.5Z"/>
    </g>
    <text class="cls-3" transform="translate(56.63 121.61)"><tspan x="0" y="0">CENTRA</tspan><tspan class="cls-2" x="116.83" y="0">L</tspan><tspan class="cls-4" x="131.58" y="0" xml:space="preserve"> SC</tspan></text>
  </g>
</svg>