<?xml version="1.0" encoding="UTF-8" standalone="no"?>
<svg
xmlns:dc="http://purl.org/dc/elements/1.1/"
xmlns:cc="http://creativecommons.org/ns#"
xmlns:rdf="http://www.w3.org/1999/02/22-rdf-syntax-ns#"
xmlns:svg="http://www.w3.org/2000/svg"
xmlns="http://www.w3.org/2000/svg"
xmlns:sodipodi="http://sodipodi.sourceforge.net/DTD/sodipodi-0.dtd"
xmlns:inkscape="http://www.inkscape.org/namespaces/inkscape"
id="svg2"
version="1.1"
inkscape:version="0.48.0 r9654"
width="219.68442"
height="219.68442"
xml:space="preserve"
sodipodi:docname="Interflug.eps.pdf"><metadata
id="metadata8"><rdf:RDF><cc:Work
rdf:about=""><dc:format>image/svg+xml</dc:format><dc:type
rdf:resource="http://purl.org/dc/dcmitype/StillImage" /><dc:title></dc:title></cc:Work></rdf:RDF></metadata><defs
id="defs6" /><sodipodi:namedview
pagecolor="#ffffff"
bordercolor="#666666"
borderopacity="1"
objecttolerance="10"
gridtolerance="10"
guidetolerance="10"
inkscape:pageopacity="0"
inkscape:pageshadow="2"
inkscape:window-width="640"
inkscape:window-height="480"
id="namedview4"
showgrid="false"
fit-margin-top="0"
fit-margin-left="0"
fit-margin-right="0"
fit-margin-bottom="0"
inkscape:zoom="1.2160482"
inkscape:cx="114.77613"
inkscape:cy="113.9538"
inkscape:window-x="0"
inkscape:window-y="0"
inkscape:window-maximized="0"
inkscape:current-layer="g3041" /><g
id="g10"
inkscape:groupmode="layer"
inkscape:label="Interflug.eps"
transform="matrix(1.25,0,0,-1.25,-12.764048,269.65146)"><g
inkscape:label="Goiania_Esporte_Clube-GO__77317.eps"
id="g3041"
transform="translate(5.654386,34.758905)"><path
id="path3049"
style="fill:#ffffff;fill-opacity:1;fill-rule:evenodd;stroke:none"
d="m 151.81087,152.46874 c -15.23808,15.23712 -36.21552,24.73608 -59.380322,24.73608 -23.1636,0 -44.14224,-9.49896 -59.37936,-24.73608 C 17.813108,137.23066 8.3153,116.25322 8.3153,93.088417 c 0,-23.1636 9.497808,-44.14224 24.735888,-59.37936 15.23712,-15.23808 36.21576,-24.7358883 59.37936,-24.7358883 23.164802,0 44.142242,9.4978083 59.380322,24.7358883 15.23712,15.23712 24.73608,36.21576 24.73608,59.37936 0,23.164803 -9.49896,44.142243 -24.73608,59.380323"
inkscape:connector-curvature="0" /><path
id="path3051"
style="fill:#221e1f;fill-opacity:1;fill-rule:evenodd;stroke:none"
d="m 92.430548,180.96226 c 24.189362,0 46.124162,-9.90744 62.044802,-25.82904 15.9216,-15.92064 25.82904,-37.85544 25.82904,-62.044803 0,-24.18936 -9.90744,-46.12296 -25.82904,-62.04456 C 138.55471,15.122209 116.61991,5.2147207 92.430548,5.2147207 c -24.18936,0 -46.12296,9.9074883 -62.04456,25.8291363 -15.921648,15.9216 -25.829136,37.8552 -25.829136,62.04456 0,24.189363 9.907488,46.124163 25.829136,62.044803 15.9216,15.9216 37.8552,25.82904 62.04456,25.82904 z m 59.380322,-28.49352 c -15.23808,15.23712 -36.21552,24.73608 -59.380322,24.73608 -23.1636,0 -44.14224,-9.49896 -59.37936,-24.73608 C 17.813108,137.23066 8.3153,116.25322 8.3153,93.088417 c 0,-23.1636 9.497808,-44.14224 24.735888,-59.37936 15.23712,-15.23808 36.21576,-24.7358883 59.37936,-24.7358883 23.164802,0 44.142242,9.4978083 59.380322,24.7358883 15.23712,15.23712 24.73608,36.21576 24.73608,59.37936 0,23.164803 -9.49896,44.142243 -24.73608,59.380323"
inkscape:connector-curvature="0" /><path
id="path3053"
style="fill:#221e1f;fill-opacity:1;fill-rule:evenodd;stroke:none"
d="m 175.86343,113.86162 c 1.63968,-6.69648 2.52744,-13.6668 2.52744,-20.773203 0,-8.13096 -1.1616,-15.98904 -3.27936,-23.50584 -24.53064,7.72128 -52.75224,12.09456 -82.680962,12.09456 -29.92872,0 -58.14936,-4.37328 -82.680888,-12.09456 -2.117808,7.5168 -3.27936,15.37488 -3.27936,23.50584 0,7.106403 0.887808,14.076723 2.528424,20.773203 24.735984,7.78968 53.229264,12.29904 83.431824,12.29904 30.202562,0 58.697042,-4.50936 83.432882,-12.29904"
inkscape:connector-curvature="0" /><path
id="path3055"
style="fill:#221e1f;fill-opacity:1;fill-rule:evenodd;stroke:none"
d="m 51.227588,151.58002 7.17456,0 0,-20.70384 5.9448,0 0,30.1332 -4.8516,0 c -0.13704,-2.25456 -1.70808,-5.26128 -7.38,-5.26128 l -0.88776,0 0,-4.16808 z m 23.232,-0.54648 c 0,4.30488 2.73384,5.0568 4.23672,5.0568 3.07488,0 4.57872,-2.11872 4.57872,-5.53488 0,-3.5532 -2.32416,-5.05704 -4.37352,-5.05704 -2.25552,0 -4.44192,0.95736 -4.44192,5.53512 z m -5.32968,-13.18776 c 0.47808,-4.7832 4.16808,-7.78992 9.29352,-7.78992 5.46552,0 10.93224,3.75864 10.93224,15.44256 0,4.23672 -0.13608,15.51096 -10.59096,15.51096 -5.8764,0 -10.24968,-3.48456 -10.24968,-10.8636 0,-5.05704 3.34776,-9.36192 9.08808,-9.36192 2.05032,0 4.37352,0.47808 5.73936,2.5284 l 0.0684,-0.0684 c 0,-6.35448 -2.46,-8.4048 -4.92,-8.4048 -1.84488,0 -3.14256,0.88776 -3.48456,2.93808 l 0,0.0686 -5.8764,0 z m 30.61224,6.2184 c 2.801282,0 6.765122,-0.20544 6.765122,-4.30512 0,-3.34872 -2.05032,-4.92 -4.44192,-4.92 -3.962882,0 -4.441922,3.6216 -4.441922,5.26128 l 0.0684,0 -5.73936,0 c 0,-9.42936 7.58448,-10.04448 10.386482,-10.04448 6.08064,0 10.31832,4.03128 10.31832,9.7032 0,5.12448 -3.48576,6.69672 -4.57896,7.03776 l 0,0.0686 c 1.70832,0.75168 3.6216,2.66424 3.6216,5.73936 0,6.3552 -5.32968,8.40456 -9.36096,8.40456 -6.764882,0 -9.908402,-4.03128 -9.908402,-9.70224 l 5.46672,0 c 0,1.0932 0,4.91904 4.099682,4.91904 3.28032,0 3.7584,-2.73264 3.7584,-3.82584 0,-3.96384 -3.28032,-4.10064 -5.05704,-4.10064 l -0.956162,0 0,-4.23552 z m 26.375762,4.71456 c -2.52864,0 -3.82608,1.91256 -3.82608,3.69 0,2.2548 1.43448,3.75744 4.09968,3.75744 1.91352,0 3.4164,-1.43424 3.4164,-3.75744 0,-2.11872 -1.29864,-3.69 -3.69,-3.69 z m 10.45488,-8.95128 c 0,3.89448 -1.63968,5.808 -4.51032,7.24224 2.3916,1.2984 3.48552,3.48576 3.48552,6.0816 0,4.16904 -3.34872,7.85808 -9.56712,7.85808 -5.26128,0 -9.36096,-3.14256 -9.36096,-8.26776 0,-2.80128 1.23,-4.7148 3.6216,-5.87616 -4.57872,-2.11896 -4.57872,-6.0816 -4.57872,-7.65288 0,-4.10064 2.6652,-9.15672 10.45512,-9.15672 7.99488,0 10.45488,5.9448 10.45488,9.7716 z m -6.15,-0.2736 c 0,-2.05032 -1.1616,-4.7148 -4.30488,-4.7148 -2.66448,0 -4.30512,1.91352 -4.30512,4.7832 0,3.28032 2.05032,4.64616 4.23648,4.64616 3.28032,0 4.37352,-2.59584 4.37352,-4.71456"
inkscape:connector-curvature="0" /><path
id="path3057"
style="fill:#ffffff;fill-opacity:1;fill-rule:evenodd;stroke:none"
d="m 36.467588,92.951617 5.19264,0.88872 c -0.0684,-4.57776 -3.41616,-5.67192 -4.44096,-5.80776 -3.14328,-0.61512 -6.76488,0.27288 -7.92648,6.28584 -1.1616,5.67096 1.50288,8.610003 4.7832,9.225123 3.28032,0.61488 5.39808,-1.84512 5.60328,-2.73384 l 4.6464,0.95712 c -0.88872,3.00672 -4.44192,6.90096 -11.20704,5.53512 -7.51584,-1.3668 -9.77064,-7.790643 -8.60904,-13.872243 1.50288,-7.72128 7.1064,-10.59096 12.50448,-9.5652 4.03128,0.81936 5.32968,3.14232 6.2868,4.71456 l 0.9564,-2.6652 3.14328,0.61488 -2.32296,11.88936 -9.29352,-1.77648 0.68352,-3.69 z m 13.25616,5.32968 c 1.0932,-10.52256 9.08808,-11.00064 12.09456,-10.65936 2.93832,0.34224 10.6596,2.46 9.5664,12.914883 -1.1616,10.59096 -9.08808,11.06904 -12.0948,10.728 -3.00648,-0.27384 -10.65936,-2.3916 -9.56616,-12.983523 z m 4.71456,0.47904 c -0.68328,6.285843 2.73384,8.267763 5.26224,8.541603 2.52744,0.27288 6.28608,-0.95712 6.96936,-7.24416 0.61512,-6.285843 -2.7336,-8.199363 -5.32968,-8.472003 -2.5284,-0.20544 -6.2868,0.95616 -6.90192,7.17456 z m 25.28256,13.529043 -4.78296,-0.20424 0.82008,-22.549683 4.7148,0.1368 -0.75192,22.617123 z m 16.05744,7.2432 -3.82584,0 -3.6216,-4.57776 3.5532,0 1.91352,2.59584 2.04936,-2.59584 3.55296,0 -3.6216,4.57776 z m -6.0804,-24.804483 8.26776,0 1.43424,-4.64616 5.193842,0 -7.995122,22.617123 -5.39808,0 -8.06256,-22.617123 4.98768,0 1.57224,4.64616 z m 4.09968,12.846723 0.0684,0 2.80128,-8.951283 -5.73936,0 2.86968,8.951283 z m 27.946802,-11.548323 -0.0684,0 -8.13096,16.262883 -4.9884,0.20544 -1.1616,-22.481283 4.37328,-0.27288 0.88896,16.057443 0.0674,0 8.33712,-16.535523 4.7148,-0.27384 1.23,22.548723 -4.44192,0.27384 -0.82032,-15.784803 z m 15.30648,14.213523 -4.71456,0.54648 -2.3916,-22.481043 4.71456,-0.47832 2.3916,22.412883 z m 7.51704,-19.474563 8.26776,-1.29864 0.68328,-4.85136 5.05704,-0.8196 -4.30512,23.573523 -5.39904,0.82032 -11.54712,-21.045843 4.92,-0.75192 2.3232,4.37352 z m 6.14904,11.957763 1.4352,-9.293523 -5.74032,0.88872 4.30512,8.404803"
inkscape:connector-curvature="0" /><path
id="path3059"
style="fill:#221e1f;fill-opacity:1;fill-rule:evenodd;stroke:none"
d="m 79.653428,62.066497 -20.02128,0 0,-27.26424 20.70384,0 0,4.7832 -15.10128,0 0,7.10616 13.25616,0 0,4.7832 -13.25616,0 0,5.74032 14.41872,0 0,4.85136 z m 10.52256,-21.72936 -5.67096,0 0,-5.53488 5.67096,0 0,5.53488 z m 28.357442,12.77832 c -0.27384,4.03104 -3.6216,9.63456 -11.75352,9.63456 -7.037762,0 -12.572642,-4.8516 -12.572642,-14.35032 0,-9.42936 5.26104,-14.34936 12.504242,-14.34936 6.83352,0 10.66032,4.16808 11.82192,10.11288 l -5.67192,0 c -0.68352,-3.34776 -2.86968,-5.12448 -6.0816,-5.12448 -4.78296,0 -6.76488,4.37256 -6.76488,9.29352 0,7.72128 4.03224,9.49776 6.76488,9.49776 4.71576,0 5.60352,-3.07488 6.0816,-4.71456 l 5.67192,0 z m 9.56616,-12.77832 -5.67168,0 0,-5.53488 5.67168,0 0,5.53488"
inkscape:connector-curvature="0" /></g></g></svg>