<?xml version="1.0" encoding="UTF-8"?>
<svg id="Layer_1" data-name="Layer 1" xmlns="http://www.w3.org/2000/svg" viewBox="0 0 465.84 465.87">
  <defs>
    <style>
      .cls-1 {
        fill: #fff;
      }

      .cls-2 {
        fill: #2a2764;
      }
    </style>
  </defs>
  <circle class="cls-1" cx="232.92" cy="232.94" r="224.1"/>
  <g>
    <path class="cls-2" d="m231.99,0c129.04-.29,233.17,103.55,233.85,231.72.68,129.08-103.24,233.93-232.36,234.15C105.2,466.09-.04,363.22,0,232.65.04,104.04,103.38.83,231.99,0Zm221.27,238.2c2.47-120.7-92.81-223.51-218.02-225.18C116.84,11.43,13.98,105.74,12.52,231.27c-1.37,118.16,91.51,219.45,215.35,222.46,121.3,2.95,222.22-92.47,225.38-215.54Z"/>
    <path class="cls-2" d="m405.56,259.8c1-.13,1.51-.87,2.07-1.48,6.58-7.3,13.52-14.26,20.26-21.41.55-.58,1.06-1.2,1.58-1.8.27-.31.55-.62,1-.46.49.18.42.64.37,1.02-.25,1.66-.38,3.32-.48,5-.82,12.79-2.91,25.4-5.94,37.84-2.64,10.8-6.07,21.35-10.42,31.59-3,7.06-6.37,13.93-10.07,20.66-3.47,6.31-7.31,12.38-11.44,18.25-4,5.69-8.47,11-13.04,16.24-3.79,4.35-7.76,8.49-12.04,12.34-5.94,5.34-11.97,10.6-18.6,15.08-5.36,3.62-10.71,7.29-16.42,10.34-5.07,2.71-10.28,5.16-15.53,7.51-11.49,5.15-23.51,8.72-35.81,11.31-7.11,1.5-14.33,2.41-21.56,3.15-2.71.28-2.61.04-2.87-2.34-.98-8.89-2.21-17.75-3.32-26.63-.58-4.6-1.04-9.21-1.7-13.79-1.15-7.9-1.92-15.85-2.91-23.77-.17-1.39-.52-1.69-1.88-1.44-8.89,1.6-17.82,1.34-26.77.75-1.69-.11-1.88.07-2.09,1.76-1.7,13.63-3.43,27.27-5.13,40.9-.9,7.21-1.75,14.43-2.63,21.65-.07.56-.15,1.11-.22,1.66-.13.96-.64,1.38-1.64,1.29-1.43-.13-2.88-.09-4.3-.3-5.93-.86-11.89-1.56-17.75-2.75-5.47-1.11-10.91-2.44-16.26-4.08-7.11-2.18-14.09-4.71-20.9-7.67-8.07-3.51-15.75-7.74-23.25-12.35-6.56-4.03-12.74-8.55-18.67-13.4-5.25-4.29-10.34-8.81-14.92-13.84-2.63-2.89-5.41-5.65-7.92-8.67-3.63-4.35-6.98-8.91-10.35-13.47-4.52-6.14-8.33-12.68-12.09-19.27-4.75-8.34-8.56-17.14-11.96-26.11-6.51-17.19-10.63-34.97-12.75-53.21-.56-4.83-.91-9.69-1.35-14.54-.04-.4-.07-.81.5-1.11,3.96,4.17,7.93,8.39,11.95,12.56,3.94,4.08,7.9,8.14,11.69,12.41.56-.61.42-.91.28-1.19-4.56-8.93-7.54-18.44-10.26-28.06-3.17-11.19-5-22.63-6.05-34.17-1.12-12.27-1.37-24.57-.55-36.89.44-6.61,1-13.22,1.41-19.83.12-1.91.78-3.76.78-5.69,0-1.14.77-1.18,1.65-1.17,3.2.04,6.39.04,9.59.04,5.91,0,11.82-.09,17.73-.06,5.27.02,10.54-.08,15.81.01.87.02,1.34.38,1.61,1.13.32.9.66,1.8.94,2.72,3.43,11.28,8.02,22.07,14.03,32.21,4.85,8.18,10.31,15.99,16.9,22.88,5.02,5.25,10.42,10.09,16.2,14.55,10.54,8.14,22.18,14.17,34.54,18.91,7.75,2.97,15.78,5.11,23.8,7.25.69.18,1.38.34,2.22.12-.26-1.09-1.14-1.33-1.9-1.64-11.1-4.55-20.74-11.31-29.31-19.6-7.56-7.32-13.82-15.68-19.02-24.83-3.51-6.19-6.5-12.64-9.69-18.99-.78-1.56-.74-2.62.54-3.98,4.43-4.71,8.71-9.57,13.03-14.39.47-.52,1.04-1,1.04-1.96-2.61-.81-5.3-1.46-7.84-2.56-1.85-.8-3.58-1.76-4.99-3.24-2.64-2.77-2.43-5.7.67-7.92,1.17-.83,2.38-1.72,3.72-2.16,1.57-.52,1.88-1.52,1.87-2.9-.02-2-.03-3.99-.03-5.99,0-5.12-.06-10.24.05-15.35.04-1.78-.84-3.22-1.23-4.83-.89-3.65-2.06-7.22-3.05-10.84-.51-1.88-1.32-3.51-2.64-5.02-5.16-5.89-10.47-11.64-15.88-17.3-1.21-1.27-2.19-2.76-3.59-3.85-.32-.25-.56-.6-.34-1.03.21-.41.62-.45,1.03-.43,9.42.49,18.84.48,28.27.56,1.52.01,1.89.29,1.81,1.82-.13,2.39.08,4.79-.25,7.18-.2,1.47.32,1.9,1.76,1.6.39-.08.77-.21,1.14-.37.87-.38,2.04.12,2.71-.72.73-.91.58-2.14.72-3.22.31-2.37.49-4.77.51-7.16.01-1.56.54-2.89,1.49-3.93,2.8-3.08,5.02-6.6,7.71-9.76,1.33-1.56,1.35-1.61,2.58-.09,2.52,3.1,5.05,6.19,7.59,9.26,1.1,1.33,1.82,2.62,1.52,4.54-.37,2.35-.17,4.78-.35,7.17-.09,1.29.6,1.47,1.58,1.52,1.64.07,2.27-.26,2.24-1.4-.06-2.24-.19-4.47-.33-6.7-.08-1.16.15-2.14.85-3.13,2.9-4.11,5.7-8.29,8.53-12.44.89-1.3,1.19-1.36,2.01-.1,2.37,3.61,4.69,7.25,7.02,10.87.71,1.11.98,2.31.98,3.64,0,2.32.12,4.63.15,6.95.01,1.11.53,1.5,1.62,1.58,4.34.31,4.33.34,4.38-3.96.01-.88.14-1.77.03-2.63-.41-3.21.58-5.86,2.64-8.37,2.74-3.33,5.12-6.93,7.47-10.55.17-.27.37-.52.9-.61,1.11,1.05,1.47,2.67,2.26,4.01,1.86,3.16,3.5,6.46,5.33,9.65,1.07,1.87,1.54,3.82,1.49,5.95-.04,1.6.06,3.2.02,4.79-.03,1.13.5,1.61,1.57,1.63.16,0,.32,0,.48,0,3.26.12,3.22.12,3.32-3.1.12-4.08.58-8.01,2.98-11.62,2.16-3.24,3.74-6.87,5.6-10.31.66-1.22,1-1.22,1.79-.05,2.96,4.37,6.02,8.66,9.33,12.76.62.77.71,1.59.71,2.46.02,2.64-.02,5.28.02,7.91.02,1.94.09,1.97,2.07,1.97.56,0,1.12.02,1.68.04,1.88.08,2.18-.2,2.27-2.15.04-.88.05-1.76.08-2.64.28-7.17-.38-4.9,3.34-10.91,1.6-2.58,3.28-5.1,4.89-7.67.51-.81.98-.74,1.44-.04,2.92,4.49,5.98,8.88,9.11,13.22.61.84.62,1.79.57,2.76-.11,2.15-.15,4.32-.37,6.46-.12,1.18.3,1.59,1.41,1.65,1.88.09,2.5-.15,2.44-1.42-.13-2.55.21-5.14-.32-7.65-.32-1.54.17-2.63,1.16-3.66,2.9-2.99,5.34-6.35,7.85-9.66,1.13-1.48,1.45-1.55,2.66-.04,1.8,2.24,3.46,4.59,5.27,6.82q4.01,4.92,4.35,11.2c.08,1.59.25,3.18.36,4.78.03.49.08,1.06.5,1.29,1.48.84,3.15,1.13,4.81,1.13.94,0,.8-.99.78-1.71-.08-2.24-.15-4.47-.19-6.71-.04-1.91.08-1.99,1.98-2.02,8.63-.12,17.26-.25,25.9-.39.55,0,1.1-.14,1.65-.24.5-.09.97-.09,1.27.39.33.54-.06.88-.39,1.23-3.68,3.99-7.37,7.98-11.04,11.99-2.91,3.18-5.79,6.39-8.71,9.57-.89.97-1.39,2.04-1.72,3.34-1.03,4.02-2.22,8-3.42,11.98-.72,2.39-1.17,4.77-1.13,7.3.1,6.39.09,12.79,0,19.19-.02,1.42.44,2.26,1.59,2.9.97.55,1.97,1.09,2.85,1.76,2.47,1.87,3.58,5.47.49,8.2-2.43,2.15-5.27,3.25-8.26,4.18-.46.14-.95.2-1.38.4-.61.28-.77.79-.39,1.38.21.33.48.64.75.93,4.49,4.88,8.98,9.75,13.47,14.63,1.81,1.96,1.74,1.94.72,4.36-2.47,5.9-5.3,11.64-8.51,17.14-5.28,9.03-11.08,17.7-18.57,25.17-7.43,7.41-15.71,13.54-24.93,18.45-1.76.94-3.63,1.66-5.45,2.47-.44.19-.9.32-1.34.52-.48.22-1.26.39-.93,1.1.27.59.97.33,1.51.18,5.69-1.57,11.43-2.97,17.05-4.74,6.09-1.92,12.01-4.33,17.82-7,10.88-5.01,20.87-11.44,29.98-19.16,6.59-5.58,12.5-11.87,17.73-18.79,5.47-7.22,10.36-14.8,14.25-22.98,2.19-4.61,4.31-9.25,6.16-14.02,1.44-3.73,2.61-7.55,3.77-11.37.39-1.29,1.01-1.73,2.39-1.72,11.67.05,23.33,0,35,0,2.63,0,5.27.33,7.9-.1.89-.15,1.36.36,1.48,1.18.14.95.2,1.91.3,2.86,1.72,16.96,2.85,33.95,1.88,51-.56,9.81-1.69,19.56-3.57,29.24-1.77,9.12-4.08,18.09-7.12,26.83-1.8,5.18-3.79,10.35-6.48,15.19-.22.4-.58.76-.4,1.42Zm-105.24,14.58c.97.88,1.98,1.77,2.95,2.7,1.38,1.33,2.71,2.71,4.1,4.04,8.37,8.01,16.73,16.01,25.12,23.99.81.77.85,1.49.19,2.29-2.63,3.21-5.28,6.41-8.13,9.43-3.4,3.61-7.11,6.88-10.89,10.09-5.61,4.78-11.43,9.23-17.88,12.81-1.83,1.02-2.44,2.14-2.32,4.3.35,6.54.38,13.1.53,19.65.03,1.27.4,1.59,1.6,1.25.46-.13.89-.36,1.33-.54,4.73-1.95,9.33-4.16,13.87-6.53,6.76-3.52,13.09-7.73,19.04-12.44,7.47-5.92,14.1-12.74,19.85-20.38,4.67-6.2,8.83-12.72,12.19-19.74,2.69-5.62,5.15-11.32,7.08-17.27,1.78-5.48,3.49-10.96,4.64-16.6.94-4.61,1.87-9.24,2.5-13.9.68-5.06,1.49-10.12,1.53-15.25.02-2.88.67-5.72.48-8.61-.02-.3.03-.65.38-.81.5-.22.71.15.94.47,3.39,4.65,6.97,9.2,9.43,14.42,1.86,3.95,4.26,7.72,4.77,12.21.02.15.09.31.15.45.17.38.41.74.87.67.32-.05.52-.36.57-.69.07-.47.11-.95.16-1.43.26-2.7.57-5.41.77-8.12.4-5.26.85-10.52,1.06-15.79.23-5.75-.15-11.5-.52-17.24-.42-6.46-1.22-12.88-2.72-19.2-.77-3.26-1.53-6.52-2.28-9.78-.09-.39-.15-.83-.65-.87-.57-.05-.82.41-1.09.8-2.11,3.13-4.78,5.77-7.29,8.56-6.21,6.91-12.93,13.23-20.35,18.83-8.26,6.25-17.12,11.46-26.54,15.73-6.92,3.13-14.01,5.76-21.31,7.92-4.84,1.43-9.74,2.53-14.67,3.52-3.13.63-6.23,1.47-9.44,1.61-.45.02-1.07.06-1.14.64-.08.65.55.69.99.77,2.84.5,5.54,1.51,8.3,2.31,7.75,2.27,15.38,4.89,22.86,7.92,10.44,4.23,20.75,8.79,30.73,14.04,5.02,2.64,10.01,5.33,15,8.01,1.2.64,1.34,1.17.63,2.27-.17.27-.4.5-.6.75-6.87,8.52-13.74,17.04-20.61,25.56-1.02,1.27-1.27,1.28-2.36.05-7.82-8.79-16.15-17.04-25.18-24.6-6.69-5.59-13.67-10.78-21.01-15.48-4.91-3.15-10.04-5.91-15.29-8.46-9.11-4.44-18.63-7.58-28.51-9.73-4.94-1.08-9.97-1.36-14.99-1.68-7.84-.51-15.66-.08-23.43.98-5.3.72-10.46,2.17-15.63,3.6-10.17,2.81-19.62,7.24-28.81,12.26-8.92,4.86-17.29,10.61-25.33,16.81-8.23,6.35-16.11,13.11-23.53,20.4-2.27,2.24-4.56,4.46-6.79,6.75-.75.77-1.27.89-1.82-.13-.26-.49-.59-.95-.86-1.44-2.84-5.09-5.65-10.2-8.52-15.27-2.12-3.75-4.3-7.47-6.48-11.18-.47-.79-.71-1.42.28-1.98,4.09-2.31,8.09-4.79,12.2-7.09,3.14-1.76,6.28-3.52,9.5-5.09,7.95-3.89,15.9-7.8,24.19-10.97,8.28-3.17,16.58-6.27,25.18-8.5.72-.19,1.62-.21,1.98-1.1-.22-.6-.73-.61-1.2-.64-5.22-.31-10.25-1.68-15.27-2.96-10-2.54-19.74-5.91-29.05-10.44-7.27-3.54-14.28-7.49-20.89-12.16-7.2-5.09-13.83-10.81-19.9-17.22-3.29-3.48-6.66-6.88-9.49-10.77-.71-.97-1.23-.88-1.66.2-.09.22-.15.46-.21.69-2.01,8.24-3.79,16.51-4.41,25-.88,12.01-.22,23.95,1.16,35.88.29,2.54.49,5.09.75,7.63.05.48.12,1.03.7,1.1.61.06.77-.51.88-.96.32-1.32.58-2.64,1.05-3.93,3.13-8.66,8.15-16.23,13.51-23.62.2-.27.42-.55.76-.48.44.1.62.5.61.91,0,.71-.17,1.43-.11,2.14.38,4.37.58,8.76,1,13.13.55,5.65,1.29,11.28,2.38,16.84,1.88,9.65,4.51,19.11,7.96,28.34,3.2,8.58,7.24,16.75,12.3,24.33,8.97,13.44,20.22,24.67,33.83,33.52,7.46,4.85,15.36,8.82,23.47,12.41,1.28.57,1.87.26,1.98-1.06.49-6.13.92-12.27,1.38-18.41.09-1.26-.37-2.13-1.51-2.72-5.83-3.05-11.12-6.9-16.35-10.86-5.23-3.97-10.11-8.34-14.7-13.01-3.52-3.59-6.69-7.51-10.02-11.28-1.47-1.66-1.27-1.48.08-2.83,5.99-5.98,11.99-11.96,17.98-17.94,4.19-4.18,8.39-8.34,12.54-12.55,1.54-1.56,1.57-1.64,2.71.12,4.04,6.28,8.7,12.03,14.14,17.17,7.28,6.88,15.56,12.23,24.75,16.14,6.57,2.79,13.41,4.65,20.52,5.57,10.31,1.33,20.45.39,30.35-2.53,7.15-2.11,13.86-5.37,20.1-9.47,9.86-6.47,18.12-14.64,25.04-24.18.51-.7.89-1.52,1.84-2.09Zm81.33-30.78c-1.02.82-.28,1.93-.38,2.89-.61,5.8-1.49,11.57-2.39,17.33-1.05,6.71-2.75,13.28-4.58,19.82-2.37,8.5-5.72,16.6-9.57,24.51-2.67,5.47-5.9,10.62-9.36,15.6-2.46,3.54-5.06,7.02-7.97,10.18-5.3,5.76-10.83,11.28-17.2,15.93-6.27,4.58-12.74,8.79-19.63,12.36-6.04,3.13-12.3,5.71-18.68,8.05-5.7,2.09-11.5,3.88-17.37,5.35-5.89,1.47-11.82,2.83-17.83,3.68-1.33.19-1.54.78-1.4,1.91.33,2.7.56,5.4.89,8.1.72,5.79,1.48,11.57,2.21,17.36.54,4.28,1.06,8.56,1.61,12.84.18,1.42.48,1.68,1.81,1.54,8.19-.9,16.31-2.23,24.3-4.22,7.67-1.9,15.23-4.18,22.62-7.04,7.08-2.74,13.99-5.88,20.68-9.43,6.92-3.67,13.46-8,19.78-12.61,6.91-5.04,13.35-10.65,19.48-16.64,7.68-7.51,14.5-15.73,20.8-24.4,4.7-6.47,8.74-13.35,12.63-20.34,4.05-7.29,7.36-14.91,10.43-22.63,4.02-10.1,6.98-20.54,9.42-31.15,2.03-8.82,3.05-17.77,4.44-26.68.06-.41-.01-.81-.44-1.01-.44-.21-.78.03-1.02.36-1.69,2.35-3.92,4.18-5.88,6.27-3.45,3.66-6.87,7.35-10.25,11.08-3.65,4.02-7.4,7.95-10.51,12.42-1.18,1.7-2.54,3.28-3.82,4.91-.2.26-.46.47-.8.4-.37-.08-.54-.45-.43-.74.51-1.47-.33-2.84-.24-4.25.22-3.75-.85-7.31-1.7-10.86-1.68-7.03-4.6-13.6-8.44-19.74-.28-.45-.41-1.08-1.17-1.16Zm-177.37,177.36c2,.06,2.31-.13,2.49-1.56.35-2.61.64-5.23.96-7.85.58-4.6,1.17-9.19,1.75-13.79.69-5.47,1.4-10.93,2.05-16.4.19-1.56-.11-1.97-1.81-2.16-1.84-.2-3.61-.65-5.41-.99-12.58-2.39-24.85-5.8-36.72-10.69-8.53-3.51-16.58-7.88-24.33-12.84-9.56-6.13-17.84-13.76-25.25-22.29-7.04-8.1-12.75-17.14-17.34-26.87-2.63-5.57-4.81-11.3-6.8-17.13-2.62-7.65-4.35-15.53-5.9-23.44-1.25-6.35-1.83-12.81-2.43-19.26-.04-.4-.09-.8-.2-1.18-.11-.39-.3-.76-.8-.72-.36.03-.57.29-.68.59-.43,1.12-.93,2.2-1.56,3.23-4.27,6.99-6.62,14.67-8.02,22.67-.52,2.99-.9,6-.82,9.06.01.4-.03.84-.49.98-.45.14-.73-.17-.96-.51-.73-1.05-1.43-2.12-2.2-3.13-3.85-5.1-7.99-9.97-12.35-14.64-5.12-5.49-10.26-10.97-15.4-16.44-.38-.4-.83-.92-1.42-.57-.45.27-.28.86-.2,1.33,1.13,7.01,1.74,14.1,3.28,21.06,1.54,6.94,2.97,13.92,5.05,20.72,2.26,7.41,5.01,14.64,7.96,21.81,3.87,9.41,8.7,18.33,14.01,26.98,4.48,7.29,9.58,14.14,15.02,20.76,5.29,6.44,11.08,12.38,17.16,18.04,6.08,5.67,12.63,10.8,19.51,15.46,3.77,2.55,7.57,5.09,11.54,7.29,8.25,4.57,16.73,8.69,25.61,11.89,3.61,1.3,7.2,2.66,10.88,3.72,6.28,1.81,12.61,3.44,19.05,4.62,5.03.92,10.09,1.66,14.78,2.25Zm27.84-66.47c18.16-.5,34.67-4.41,50.33-11.82,7.95-3.76,15.48-8.24,22.51-13.57,8.25-6.25,15.72-13.3,22.44-21.17,1.11-1.29,1.08-1.31-.16-2.5-7.53-7.27-15.06-14.54-22.59-21.82-.98-.94-1.94-1.9-2.95-2.82-.72-.66-1.42-.64-2.01.22-2.98,4.39-6.79,8.04-10.52,11.76-7.85,7.83-16.94,13.84-27.1,18.17-7.84,3.34-16.11,5.14-24.62,5.8-5.85.45-11.66.17-17.44-.8-3.62-.61-7.22-1.33-10.74-2.39-4.98-1.5-9.75-3.49-14.38-5.9-7.99-4.16-15.26-9.29-21.62-15.7-3.9-3.93-7.49-8.08-10.58-12.68-.82-1.22-.92-1.19-1.94-.17-1.8,1.81-3.6,3.62-5.41,5.43-6.66,6.66-13.31,13.31-19.98,19.96-1.32,1.31-1.36,1.29-.2,2.6,4.45,5.01,9.04,9.88,14.05,14.37,6.44,5.78,13.21,11.07,20.65,15.49,8.12,4.83,16.57,8.92,25.59,11.84,12.2,3.94,24.7,5.72,36.65,5.7Zm.63-163.11c6.25.02,13.61-.73,20.4-2.55,11.09-2.96,21.25-7.78,29.83-15.61,6.87-6.27,11.95-13.68,14.97-22.48.63-1.84.42-2.08-1.54-1.8-2.99.43-5.95,1.09-8.96,1.43-7.06.8-14.12,1.6-21.21,2.05-16.28,1.03-32.57,1.3-48.88.86-14.63-.39-29.21-1.23-43.71-3.22-1.56-.21-3.2-.11-4.68-.83-.54-.26-1.12-.3-1.52.23-.34.44-.12.92.13,1.34,1.02,1.72,1.81,3.56,2.74,5.32,4.52,8.54,10.54,15.69,18.39,21.41,4.96,3.61,10.28,6.45,15.95,8.63,9.03,3.49,18.44,5.07,28.11,5.22Zm.43-41.6c11.23-.2,24.09-.33,36.93-1.39,13.07-1.08,26.09-2.49,38.8-5.91,3.1-.83,6.1-1.94,8.72-3.85,1.56-1.14,1.55-2.03-.07-3.11-.93-.62-1.92-1.16-2.93-1.62-4.32-1.96-8.96-2.91-13.55-3.91-6.4-1.39-12.91-2.16-19.42-2.92-10.57-1.22-21.17-1.95-31.79-2.29-10.62-.34-21.26-.27-31.89-.03-12.55.28-25.06,1-37.53,2.45-8.74,1.01-17.42,2.31-25.9,4.71-3,.85-5.99,1.74-8.61,3.53-1.95,1.33-1.97,1.82-.04,3.3,1.35,1.03,2.87,1.73,4.45,2.32,5.19,1.93,10.57,3,16,4.03,10.07,1.91,20.26,2.85,30.45,3.58,11.56.83,23.15,1.08,36.38,1.12Zm-5.2-69.88c-.64,0-1.28,0-1.92,0-10.88-.08-21.74.49-32.57,1.38-6.2.51-12.39,1.3-18.58,2.08-8.57,1.09-17.04,2.64-25.53,4.16-1.62.29-1.88.77-1.41,2.32.68,2.21,1.41,4.41,2.07,6.63.48,1.61.93,3.22,1.3,4.85.29,1.25,1.01,1.51,2.12,1.2,1-.28,1.99-.6,3-.81,6.26-1.3,12.52-2.54,18.83-3.62,9.86-1.68,19.78-2.76,29.74-3.42,13.32-.88,26.67-.9,40.02-.28,6.23.29,12.45.67,18.65,1.3,6.99.7,13.98,1.42,20.94,2.48,8.45,1.29,16.91,2.48,25.26,4.33.54.12,1.1.19,1.66.23.8.05,1.37-.24,1.55-1.13.79-3.92,2.27-7.64,3.29-11.5.51-1.92.46-2.07-1.39-2.39-8.18-1.43-16.39-2.76-24.64-3.7-10-1.13-20-2.29-30.06-2.96-10.77-.71-21.55-1-32.34-1.15Zm-41.76,108.64c-.83.22-.94.75-.75,1.34.27.83.67,1.63.95,2.46,3.41,10.19,9.47,18.62,17.55,25.54,8.34,7.15,17.71,12.82,27.51,17.75.88.44,1.63.47,2.46-.08,1.6-1.06,3.24-2.04,4.86-3.08,8.1-5.18,15.68-11,22.26-18.05,6.6-7.07,11.91-14.98,15.51-24,.09-.22.22-.43.31-.65.18-.44.47-.89.08-1.34-.42-.47-.85-.13-1.29.04-.82.32-1.63.65-2.47.88-12.54,3.38-25.25,5.62-38.26,6-5.59.16-11.19.18-16.77-.34-5.96-.56-11.88-1.35-17.75-2.59-3.75-.79-7.45-1.74-11.11-2.84-1.07-.32-2.16-.56-3.07-1.05Zm138.39-121.35c0,.1,0,.21,0,.31-2.48,0-4.96-.03-7.43,0-1.94.03-1.99.08-1.96,2.07.04,2.8.12,5.59.22,8.39.04.99-.37,1.36-1.29,1.06-3.29-1.04-6.69-1.52-10.08-2.06-1.72-.27-1.9-.48-2.06-2.35-.26-3.02-.46-6.05-.66-9.08-.09-1.44-.13-2.93-1.02-4.13-1.76-2.37-3.6-4.68-5.43-7-.5-.63-1.08-.71-1.54.03-1.38,2.17-3.16,4.01-4.83,5.95-.58.67-1.01,1.43-.89,2.4.44,3.49,0,7.03.47,10.53.22,1.66-.15,1.99-1.82,2.01-2.64.03-5.27.04-7.91,0-1.61-.02-1.93-.42-1.86-2.04.12-2.95.24-5.9.36-8.85.04-.89.04-1.77-.49-2.54-1.77-2.56-3.53-5.13-5.33-7.68-.64-.9-1.13-.57-1.56.26-1.05,1.98-2.31,3.84-3.66,5.61-.54.7-.56,1.44-.59,2.25-.1,3.43-.27,6.86-.37,10.29-.03,1.09-.24,1.85-1.59,1.84-3.36-.04-6.71.03-10.07,0-1.64-.02-1.81-.24-1.79-1.79.03-3.28.03-6.55.12-9.83.04-1.26-.2-2.37-.98-3.36-1.71-2.21-3.38-4.45-4.91-6.8-.71-1.1-1.24-1.02-1.87.17-1.37,2.62-2.64,5.28-4.25,7.77-.57.89-.74,1.96-.7,3,.12,3.04-.54,6.06-.26,9.1.1,1.12-.37,1.65-1.49,1.65-3.28,0-6.55,0-9.83,0-.97,0-1.44-.41-1.44-1.45,0-2.48-.21-4.96-.07-7.42.12-2.17-.34-4.11-1.39-5.96-1.31-2.29-2.57-4.6-3.89-6.88-.56-.96-1-1.01-1.54-.12-1.53,2.54-3.23,4.95-5.13,7.21-.61.73-.74,1.53-.73,2.45.04,3.44.03,6.87.03,10.31,0,1.77-.13,1.92-1.9,1.93-3.2.02-6.39,0-9.59-.01-1.8-.01-1.86-.08-1.91-1.9-.08-2.96-.14-5.91-.22-8.87-.03-1.12,0-2.27-.62-3.26-1.23-1.96-2.49-3.9-3.8-5.81-.73-1.06-1.42-1.07-1.96.04-1.09,2.25-2.71,4.14-4.19,6.11-.93,1.24-1.36,2.46-1.28,3.96.15,2.95.27,5.91.35,8.86.04,1.52-.13,1.71-1.57,1.74-2.72.04-5.43.06-8.15.03-1.51-.01-1.8-.31-1.69-1.9.25-3.43-.08-6.88.36-10.3.09-.75-.06-1.44-.53-2.03-1.7-2.12-3.38-4.25-5.14-6.32-.82-.96-1.51-.96-2.11.07-1.36,2.29-3.24,4.16-4.81,6.27-.51.68-.73,1.34-.8,2.17-.33,3.9-.77,7.79-1.09,11.68-.11,1.29-.7,1.72-1.93,1.93-3.15.54-6.26,1.24-9.39,1.89-1.96.41-2.28.22-2.1-1.82.22-2.55.25-5.11.3-7.66.03-1.53-.28-1.86-1.77-1.9-1.68-.04-3.36.03-5.03,0-3.43-.05-6.87-.14-10.3-.22-.46,0-1.01-.19-1.24.4-.21.53.17.89.5,1.24.05.06.12.1.18.16,2.02,2.16,4.05,4.3,6.04,6.47,2.37,2.59,4.71,5.21,7.07,7.82.65.73,1.24,1.29,2.44,1.03,7.33-1.57,14.69-3.01,22.14-3.97,9.51-1.23,19.01-2.45,28.58-3.13,8.13-.58,16.28-.94,24.43-1,9.75-.07,19.5.07,29.24.53,12.3.57,24.54,1.78,36.76,3.26,9.6,1.16,19.15,2.58,28.66,4.32,1.32.24,2.15-.27,2.94-1.13,4.31-4.71,8.61-9.42,12.93-14.13.38-.41.91-.78.66-1.42-.27-.68-.91-.46-1.46-.46-2.48,0-4.95,0-7.43,0ZM58.76,135.87s0-.03,0-.05c-2.24,0-4.47-.01-6.71,0-1.6.01-1.97.44-1.43,1.85,1.52,3.94,3.06,7.88,4.68,11.79,2.38,5.76,5.24,11.29,8.22,16.77,4.48,8.23,9.54,16.07,15.47,23.33,7.6,9.31,16.09,17.71,25.79,24.88,7.94,5.87,16.42,10.8,25.39,14.85,9.4,4.25,19.19,7.45,29.27,9.74,7.49,1.7,15.07,2.84,22.67,3.82,1.04.14,2.08.09,3.08-.24,1.22-.41,2.47-.63,3.76-.67.4-.01.8-.08,1.18-.17.47-.11,1.02-.26,1.05-.81.03-.63-.59-.65-1.04-.73-.78-.14-1.6-.14-2.36-.35-4.84-1.34-9.74-2.46-14.56-3.93-6.65-2.04-13.24-4.25-19.63-6.98-10.44-4.46-20.54-9.55-30-15.89-7.73-5.18-14.9-11.04-21.45-17.59-5.08-5.07-9.83-10.47-13.99-16.38-5.12-7.27-9.72-14.83-13.41-22.91-2.79-6.1-5.42-12.28-7.26-18.75-.36-1.26-1.05-1.63-2.25-1.6-2.15.05-4.31.01-6.46.01Zm192.75,102.82c1.62.77,7.27,1.54,9.58,1.18,5.28-.82,10.59-1.54,15.82-2.63,7.65-1.6,15.27-3.29,22.75-5.69,6.93-2.22,13.7-4.79,20.35-7.71,9.7-4.26,18.72-9.68,27.05-16.22,5.16-4.05,10.02-8.45,14.43-13.3,4.3-4.73,8.25-9.74,11.7-15.14,2.88-4.51,5.56-9.15,7.94-13.94,3.56-7.16,6.35-14.64,8.83-22.23.55-1.67,1.08-3.35,1.53-5.04.42-1.56-.03-2.14-1.56-2.13-3.51.01-7.03.03-10.54.09-1.88.03-1.93.06-2.46,1.91-.96,3.39-2.19,6.68-3.48,9.94-5.77,14.55-13.25,28.09-23.24,40.26-7.57,9.22-16.22,17.17-25.98,23.92-5.78,4-11.78,7.62-18.17,10.64-4.92,2.32-9.88,4.53-14.98,6.36-6.75,2.42-13.64,4.48-20.66,6.03-5.61,1.24-11.2,2.61-16.96,3.04-.67.05-1.47-.09-1.94.65Zm153.72-102.77c-1.92,0-3.84,0-5.75,0-1.11,0-2.3-.3-3.32.2-1.2.59-.62,2.04-1.11,3.01-.04.07-.05.15-.07.23-2.32,7.3-4.64,14.59-7.74,21.63-2.81,6.37-5.94,12.57-9.7,18.4-6.6,10.24-14.26,19.59-23.66,27.5-7.56,6.35-15.63,11.84-24.33,16.47-5.58,2.97-11.35,5.5-17.22,7.82-5.65,2.23-11.42,4.11-17.26,5.71-6.69,1.83-13.41,3.62-20.34,4.44-.39.05-.88.11-.94.58-.07.59.44.78.9.93,1.26.4,2.54.18,3.8.02,4.12-.54,8.25-1.01,12.35-1.65,4.57-.71,9.11-1.61,13.62-2.68,3.57-.85,7.09-1.86,10.62-2.86,5.01-1.41,9.83-3.28,14.64-5.21,5.11-2.06,10.01-4.57,14.84-7.22,7.17-3.94,13.85-8.56,20.14-13.76,6.17-5.09,11.77-10.78,17.08-16.75,3.82-4.29,7.4-8.79,10.69-13.5,6.18-8.85,11.6-18.15,16.56-27.74,2.31-4.47,4.19-9.14,6.45-13.64.7-1.38.24-2.14-1.16-2-3.04.31-6.06-.22-9.09.08Zm-325.87-.1c-1.63-.2-4.1.34-6.58,0-1.4-.19-1.84.5-1.37,1.93,2.31,6.98,5.14,13.77,8.41,20.35,3.38,6.8,7.31,13.27,11.86,19.37,3.83,5.12,7.87,10.04,12.39,14.57,8.32,8.34,17.43,15.64,27.56,21.68,8.81,5.26,18.01,9.66,27.53,13.42,6.54,2.58,13.23,4.71,20.01,6.56,7.79,2.12,15.64,3.93,23.58,5.39,2.87.53,5.73.19,8.59-.14.32-.04.65-.15.71-.53.09-.51-.3-.7-.68-.81-.3-.09-.63-.1-.95-.12-6.41-.39-12.64-1.93-18.8-3.54-8.48-2.22-16.84-4.87-24.9-8.46-8.19-3.65-16.09-7.77-23.52-12.81-7.57-5.13-14.51-11-20.82-17.59-5.4-5.66-10.25-11.77-14.51-18.37-3.34-5.18-6.43-10.47-9.18-15.97-3.76-7.51-6.81-15.32-9.41-23.3-.44-1.36-1.08-1.72-2.39-1.67-2.23.09-4.47.03-7.54.03Zm105.59,111.06c-1.21-.04-2.39.12-3.56.4-5.35,1.28-10.7,2.6-15.97,4.18-6.12,1.84-12.13,3.98-18.09,6.27-7.53,2.89-14.84,6.29-22.11,9.79-7.28,3.51-14.23,7.58-21.23,11.59-1.53.88-1.54,1.02-.64,2.63,3.72,6.61,7.45,13.22,11.19,19.82.69,1.22,1.13,1.26,2.14.17,3.36-3.64,7.11-6.89,10.77-10.21,5.38-4.88,10.91-9.56,16.69-13.98,7.63-5.83,15.59-11.12,23.88-15.94,4.21-2.45,8.56-4.64,13.03-6.58,5.12-2.23,10.16-4.68,15.66-5.9.31-.07.64-.14.9-.3.17-.11.35-.37.35-.57,0-.18-.19-.46-.36-.53-.36-.14-.78-.24-1.16-.22-3.85.24-7.66-.26-11.48-.63Zm80.88.86c.45.88,1.41.89,2.2,1.16.98.34,2,.55,2.98.89,10.66,3.62,20.49,8.95,29.97,14.9,7.17,4.5,13.98,9.55,20.39,15.08,4.23,3.65,8.43,7.33,12.42,11.26,3.48,3.42,6.89,6.88,10.17,10.49.99,1.09,1.4,1.05,2.27-.01,5.19-6.38,10.09-12.99,15.51-19.2,1.09-1.25.96-1.72-.53-2.55-6.92-3.83-13.91-7.53-21.08-10.84-10.59-4.89-21.28-9.54-32.35-13.29-9.09-3.07-18.24-5.87-27.61-7.96-2.53-.56-5.04-.78-7.6-.58-1.75.13-3.5.32-5.26.04-.55-.09-1.13-.09-1.47.62Zm-21.61-13.06c.4-.1.87-.21,1.32-.34,1.92-.55,3.85-1.02,5.74-1.66,9.01-3.04,17.84-6.45,26.04-11.42,8.9-5.4,16.57-12.17,23.39-19.96,4.7-5.37,8.56-11.34,12.16-17.46,2.39-4.05,4.45-8.29,6.65-12.45.19-.36.36-.77.07-1.11-.43-.5-.91-.2-1.25.11-1.59,1.4-3.6,2.05-5.42,3.01-8.9,4.7-18.1,8.75-27.63,12-3.5,1.19-3.51,1.16-4.63,4.62-.17.53-.33,1.07-.55,1.58-3.86,9.29-9.05,17.67-16.06,25-5.94,6.21-12.32,11.79-19.53,16.44-.27.17-.58.28-.81.49-.15.14-.25.41-.25.62,0,.43.39.43.76.53Zm-69.69-132.22c-.47-.48-.78-.45-1.1-.43-1.61.12-3.09.82-4.66,1.08-4.8.82-9.57,1.71-14.25,3.1-2.08.62-2.11.57-2.11,2.79-.01,5.9.22,11.8-.23,17.7-.09,1.23.58,1.75,1.79,1.47.54-.13,1.05-.38,1.59-.52,10.08-2.61,20.39-3.83,30.71-4.87,9.61-.97,19.26-1.6,28.92-1.7,5.34-.05,10.68-.47,16.03-.13.4.03.84.04.99-.45.13-.46-.2-.73-.51-.98-.19-.15-.41-.25-.61-.38-5.71-3.52-11.41-7.03-17.12-10.55-.4-.25-.92-.43-.87-1.01.05-.57.61-.67,1.03-.87,4.97-2.35,9.63-5.32,14.68-7.51.47-.2.85-.57.78-1.09-.09-.6-.66-.62-1.14-.61-1.6.04-3.19.15-4.79.16-10.47.12-20.91.69-31.31,1.9-3.57.41-7.14.81-10.7,1.23-.74.09-1.89-.3-2.04.7-.16,1.07,1.1.94,1.77,1.17,6.09,2.13,11.97,4.84,18.14,6.77.39.12.82.26.9.68.12.56-.34.83-.77,1.08-.76.43-1.53.85-2.28,1.31-4.86,2.92-9.56,6.08-14.46,8.95-1.56.91-2.88.97-4.51.32-4.29-1.73-8.63-3.33-12.95-4.98-2.46-.94-4.94-1.84-7.4-2.78-.44-.17-.97-.35-.99-.91-.02-.57.53-.72.93-.95,3.95-2.25,7.92-4.47,11.84-6.76,1.56-.91,3.33-1.5,4.68-2.95Zm44.45,131.3c-.74-1.72-2.11-1.98-3.13-2.6-9.55-5.84-18.13-12.78-24.88-21.82-1.78-2.38-3.3-4.9-4.61-7.55-2.09-4.24-3.86-8.6-5.18-13.13-.33-1.14-.84-2.04-2.06-2.42-4.81-1.51-9.37-3.64-13.91-5.8-5.69-2.7-11.34-5.49-16.52-9.11-.47-.33-.98-.91-1.74-.34,8.04,17.91,18.93,33.68,34.88,45.45,11.07,8.17,23.53,13.57,37.15,17.34Zm30.94-112.69c4.07.17,8.16.16,12.21.54,7.15.67,14.33,1.1,21.47,1.93,8.91,1.04,17.71,2.49,26.37,4.81,1.78.48,2.35.06,2.26-1.8-.3-5.99-.16-11.98-.1-17.96.02-1.72-.2-1.97-1.97-2.3-4.63-.87-9.25-1.78-13.89-2.61-.76-.14-1.88-1.11-2.28.03-.31.89,1.03,1.2,1.75,1.64.2.12.46.15.66.27,3.96,2.25,7.91,4.5,11.86,6.75.35.2.71.41.63.9-.07.45-.43.64-.81.79-6.57,2.47-13.19,4.83-19.69,7.48-2.45,1-4.34.71-6.47-.66-5.17-3.33-10.45-6.48-15.68-9.71-.34-.21-.74-.43-.66-.9.1-.57.62-.65,1.07-.79,5.79-1.82,11.22-4.6,17.05-6.3.45-.13,1-.33.95-.91-.06-.61-.65-.63-1.12-.65-3.68-.21-7.29-.91-10.94-1.29-6.99-.73-14-1.26-21-1.87-3.5-.3-7.03-.06-10.52-.65-.46-.08-1.03-.06-1.14.56-.08.43.27.71.64.91,1.18.66,2.37,1.31,3.55,1.98,3.88,2.22,7.75,4.44,11.62,6.67.34.2.7.41.97.7.39.41.42.97-.17,1.15-1.48.45-2.62,1.51-4.01,2.14-5.08,2.31-9.66,5.62-14.92,7.58-.33.12-.52.38-.5.73.02.36.28.55.6.64.23.06.47.11.71.1,3.84-.22,7.66.19,11.49.12Zm152.68,135.31c.57-.19.84-.49.98-.87.57-1.49,1.11-2.99,1.68-4.48,1.54-4.02,3.28-7.98,4.61-12.07,3.26-10.04,5.79-20.24,7.33-30.72,1.14-7.68,1.85-15.39,2.28-23.12.77-13.67-.21-27.31-1.08-40.95-.04-.56-.03-1.28-.64-1.43-.71-.18-.84.59-1.05,1.08-.57,1.32-1.03,2.69-1.67,3.97-1.94,3.85-3.93,7.67-5.94,11.48-.61,1.17-.89,2.34-.76,3.68.88,9.64,1.03,19.31,1.03,28.98,0,13.05-.86,26.03-2.57,38.96-1.05,7.92-2.05,15.85-4.26,23.56-.16.57-.49,1.21.06,1.92Zm-112.21,103.7s-.07,0-.1,0c-.12-4.94-.22-9.89-.39-14.83-.07-1.86-.39-2-1.97-1.15-8.34,4.48-17.19,7.63-26.29,10.15-2.54.71-5.12,1.18-7.7,1.69-1.91.38-1.87.5-1.62,2.34.69,5.05,1.37,10.11,1.96,15.17.28,2.34.23,2.37,2.57,1.98,10.88-1.78,21.55-4.42,31.97-8.05,1.09-.38,1.58-.91,1.57-2.03-.03-1.76,0-3.51,0-5.27Zm-76.23-.24c.22-2.87.14-2.86-2.14-3.21-6.01-.91-11.92-2.3-17.69-4.22-5.54-1.84-10.96-3.99-16.17-6.63-1.32-.67-1.73-.44-1.88.98-.6,5.96-.58,11.97-1.34,17.93-.16,1.25.31,1.86,1.53,2.27,6.51,2.2,13.07,4.2,19.77,5.74,4.51,1.04,9.06,1.92,13.6,2.83,1.94.39,2.44-.01,2.67-1.97.15-1.27.21-2.55.37-3.81.44-3.49.9-6.97,1.29-9.9Zm-150.5-103.84c.23-1.4-.15-2.39-.42-3.35-2.18-7.62-3.3-15.46-4.43-23.27-1.1-7.59-1.75-15.24-2.23-22.89-.84-13.34-.83-26.68.21-40,.24-3.07.03-5.86-1.77-8.43-.32-.45-.5-1-.72-1.51-1.59-3.74-3.56-7.33-4.63-11.29-.14-.54-.37-1.19-1.07-1.05-.69.14-.62.85-.64,1.39-.05,1.12-.02,2.24-.11,3.35-.63,7.81-1.06,15.63-1.15,23.45-.12,10.48.59,20.92,1.91,31.31,1.17,9.2,3,18.26,5.53,27.2,1.94,6.86,4.5,13.48,6.97,20.14.59,1.59.8,3.44,2.56,4.94Zm97.45-108.14c-1.03-.1-1.37.35-1.75.77-1.82,2.02-3.63,4.04-5.48,6.03-2.61,2.8-4.89,5.9-7.81,8.41-1.14.97-1,1.53.49,2.53,9.78,6.58,20.24,11.83,31.18,16.18,5.79,2.3,11.82,3.89,17.73,5.83.58.19,1.36.71,1.66-.1.33-.87-.73-.9-1.22-1.13-7.19-3.38-13.17-8.34-18.67-13.98-4.62-4.73-8.21-10.14-11.16-16.03-1.11-2.22-1.98-4.53-3.01-6.78-.48-1.05-1.2-1.66-1.96-1.74Zm112.41,37.1c.65.19,1.11.03,1.57-.06,1.58-.31,2.97-1.17,4.49-1.6,7.07-2.03,13.82-4.9,20.53-7.84,6.71-2.95,13.19-6.39,19.6-9.96,1.62-.9,1.68-1.32.43-2.64-2.18-2.32-4.36-4.65-6.51-7-2.21-2.41-4.37-4.87-6.59-7.27-2.02-2.18-3.96-1.71-4.92,1.14-.18.53-.34,1.06-.49,1.6-1.13,4.2-3.08,8.08-5.35,11.72-5.35,8.59-12.15,15.76-21.29,20.47-.54.28-1.13.59-1.48,1.44Zm-208.15,58.11c.46-1.68.29-2.95.2-4.2-.08-1.03-.23-2.06-.29-3.1-.95-16.34.96-32.34,5.97-47.93.36-1.13.22-1.95-.45-2.87-3.23-4.46-6.24-9.06-8.87-13.91-.38-.71-.75-1.42-1.76-1.27-1.77,17.78,1.59,66.75,5.2,73.29Zm335.4-.66c.55-.04.63-.37.68-.68.7-4.66,1.56-9.31,2.04-13.99.67-6.59,1.34-13.18,1.69-19.81.59-10.95.59-21.89.16-32.83-.08-1.99-.27-3.98-.16-5.98.03-.46-.06-1.01-.7-1.06-.46-.03-.75.31-.87.69-.33,1-.88,1.88-1.45,2.75-2.43,3.66-4.86,7.32-7.36,10.93-.66.95-.82,1.75-.43,2.87,2.31,6.66,3.81,13.56,4.76,20.51,1.23,8.94,2.28,17.92,1.76,26.99-.14,2.39-.32,4.78-.42,7.18-.03.82-.23,1.71.3,2.43ZM249.47,109.09c-.1-.74-.75-.95-1.29-1.26-3.73-2.17-7.54-4.21-11.15-6.57-1.6-1.05-2.83-1.03-4.36-.16-2.36,1.34-4.77,2.6-7.17,3.85-1.34.7-2.76,1.28-4.08,2.02-1.28.71-1.26,1.21-.01,2.01.74.48,1.51.89,2.26,1.35,3.2,1.97,6.4,3.92,9.58,5.92,1.05.66,1.99.73,3.11.13,4.08-2.2,8.19-4.32,12.3-6.46.36-.19.7-.38.81-.83Zm-56.6,1.72c-.04-.38-.36-.46-.65-.57-4.47-1.69-8.93-3.37-13.4-5.05-.79-.3-1.53-.26-2.29.17-3.66,2.08-7.34,4.13-11.02,6.19-.43.24-.86.52-.83,1.05.03.59.59.66,1.03.83,3.57,1.35,7.28,2.44,10.68,4.14,3.04,1.52,5.39,1.26,8.02-.79,2.24-1.75,4.84-3.04,7.27-4.56.52-.33,1.12-.64,1.19-1.41Zm93.06,7.92c1.11.05,1.93-.7,2.9-1.04,3.82-1.37,7.63-2.79,11.45-4.19.45-.17.96-.31,1-.88.03-.45-.34-.68-.69-.88-3.6-2.05-7.2-4.09-10.79-6.15-1.05-.6-2.09-.62-3.2-.18-3.85,1.53-7.67,3.13-11.63,4.35-.45.14-.9.33-1.31.56-.67.39-.56.89-.06,1.34.23.21.53.36.79.54,3.04,2.05,6.34,3.68,9.28,5.89.68.51,1.46.59,2.26.64Zm-48.19,123.66c-3.9-1.11-7.84-.86-11.79-.35,3.89,1.54,7.83,1.27,11.79.35Zm-31.94,1.43q-1.38-.59-2.3.21c.81.27,1.52.28,2.3-.21Z"/>
    <path class="cls-2" d="m132.47,171.5c0,1.28.05,2.56-.02,3.83-.05,1.02.42,1.51,1.36,1.57,1.04.07,2.08.08,3.11.11,1.75.05,1.91.25,1.5,2-.47,2.02-1,4.03-1.47,6.05-.36,1.53-.16,1.8,1.4,2.06q2.29.38,2.26,2.65c0,.4.05.81-.01,1.2-.37,2.15.74,3.4,2.47,4.42,2.32,1.35,2.31,1.52,1.73,4-.33,1.39-.99,2.71-.81,4.2.05.43-.16.79-.58.94-.55.2-.96-.08-1.19-.53-1.09-2.2-3.11-3.63-4.55-5.53-1-1.33-2.34-2.12-4.02-2.33-.63-.08-1.25-.25-1.86-.44-1.61-.5-2.03-1.04-2.16-2.73-.02-.24,0-.48-.02-.72-.18-2.85-.41-3.13-3.14-3.92q-3.53-1.02-3.83-4.77c-.04-.56-.01-1.12-.08-1.67-.13-1.09-.65-1.83-1.67-2.43-4.01-2.36-4.08-1.37-3.43-6.39.19-1.5.25-3.02.29-4.54.04-1.71-.3-2.01-1.89-1.95q-3.83.14-4.11-3.64c-.06-.71-.23-1.42-.28-2.14-.18-2.67-1.08-4.67-3.94-5.6-1.7-.55-1.69-1.14-1.09-3.03.66-2.05,1.32-4.11,1.92-6.18.48-1.65.24-2.15-1.38-2.67-1.52-.48-2.83-1.45-4.44-1.77-1.21-.25-1.33-.79-.63-1.93,1.29-2.11,2.61-4.2,3.95-6.28.96-1.49.96-1.46-.74-2.34-1.64-.85-3.33-1.53-5.07-2.12-2.38-.8-2.85-3.05-1.03-4.82,1.48-1.45,3.06-2.81,4.54-4.26.76-.75.59-1.31-.48-1.38-1.78-.11-3.38-.91-5.15-1.11-1.52-.17-1.73-.68-1.01-2.12.86-1.73,1.83-3.39,3.89-3.99.48-.14.89-.47.8-1.04-.07-.41-.43-.66-.84-.76-1.77-.46-3.15-1.55-4.37-2.81-1.78-1.83-1.75-3.87-.04-5.71.77-.83,1.69-1.46,2.58-2.13.79-.6.76-1.16-.14-1.63-.71-.37-1.41-.74-2.13-1.09-.36-.18-.8-.24-1.09-.48-.83-.72-1.92-1.39-1.82-2.63.1-1.18,1.21-1.6,2.16-2.03.65-.29,1.35-.5,2.03-.71.44-.14,1.03-.13,1.04-.77,0-.56-.49-.78-.91-1-1.33-.72-2.71-1.38-3.99-2.18-1.1-.69-1.1-1.13-.07-2,2-1.67,4.24-2.84,6.9-3.02.4-.03.81-.03,1.19-.12,1.07-.25,1.28-.89.48-1.69-1.19-1.18-2.47-2.27-3.67-3.44-.99-.96-.97-1.24.12-2.03,2.49-1.78,5.07-3.04,8.25-1.68,1.05.45,1.52.1,1.52-1.03,0-1.19-.07-2.39.02-3.59.12-1.76,1.06-3.16,1.89-4.61.36-.63.87-.64,1.4-.21,2.39,1.98,4.59,4.17,4.53,7.52-.03,2.1,1.03,3.03,2.71,3.68.74.29,1.48.59,2.22.9,1.13.47,1.32,1.26.81,2.32-.59,1.22-1.14,2.46-1.73,3.68-.73,1.52-.69,1.81.54,2.86q1.74,1.48.52,3.37c-1.9,2.93-1.89,2.92,1.03,5.01,1.16.83,2.58,1.65,2.38,3.31-.18,1.54-1.72,1.96-2.88,2.63-.27.16-.6.2-.91.3-.86.27-1,.76-.37,1.38.51.5,1.06.97,1.64,1.39.66.48,1.21,1.04,1.65,1.72.89,1.37.81,2.43-.14,3.73-.74,1.01-1.8,1.55-2.85,2.13-1.57.87-1.62,1.4-.28,2.63,1.24,1.13,2.49,2.24,3.74,3.36.31.27.61.55.52,1-.12.58-.61.66-1.1.7-1.03.08-2.06.19-3.09.22-.59.02-1.16.05-1.43.64-.31.68.04,1.2.48,1.72,1.04,1.23,2.21,2.31,3.48,3.28,1.14.87,1.39,1.86.79,3.14-.24.5-.5,1.04-.54,1.58-.1,1.28-.73,1.95-1.9,2.45-1.64.69-1.65,1.01-.53,2.43.89,1.13,1.8,2.25,2.75,3.33.69.79.73,1.55.13,2.38-.09.13-.16.28-.27.39-2.15,2.22-1.69,4.41-.29,6.91,2.5,4.49,2.38,4.56-.27,8.75q-1.52,2.42,1.37,3c1.09.22,2.18.5,3.27.74.92.2,1.36.73,1.27,1.7-.16,1.75-.3,3.49-.43,5.24-.13,1.77.18,2.07,2,1.9,1.52-.14,1.83.14,1.79,1.66-.03,1.2-.1,2.39-.16,3.59-.04,0-.07,0-.11,0Z"/>
    <path class="cls-2" d="m332.97,163.79c-.1-1.59-.18-3.18-.3-4.77-.07-.99.4-1.46,1.35-1.61,1.42-.23,2.83-.5,4.24-.77,1.33-.25,1.66-.81,1.03-1.98-.76-1.4-1.56-2.79-2.42-4.13-.65-1-.58-1.85,0-2.88.87-1.52,1.54-3.16,2.33-4.73.64-1.27.62-2.45-.34-3.56-.26-.3-.45-.66-.67-.99-1.12-1.74-1.12-1.9.15-3.59.72-.96,1.45-1.9,2.2-2.83,1.04-1.28,1-1.9-.51-2.5-1.22-.49-1.41-1.42-1.91-2.45-1.41-2.88-.4-4.68,2.06-6.13.78-.46,1.33-1.16,1.79-1.91.85-1.35.53-2.11-1-2.34-1.1-.17-2.23-.13-3.34-.28-.99-.13-1.23-.79-.51-1.48,1.2-1.16,2.46-2.27,3.73-3.34,1.48-1.24,1.46-1.86-.2-2.76-4.55-2.48-4.67-5.24-.34-8.18.54-.37,1.17-.65,1.05-1.43-.1-.69-.73-.75-1.28-.86-.23-.05-.47-.12-.68-.22-3.15-1.51-3.33-3.31-.64-5.49,1.03-.83,2.84-1.09,2.93-2.58.07-1.21-1.16-2.2-1.79-3.29-.75-1.29-.66-1.66.55-2.61,1.72-1.35,1.75-1.61.75-3.54-.59-1.13-1.08-2.31-1.62-3.46-.45-.97-.26-1.71.77-2.14.88-.37,1.76-.79,2.67-1.07,1.59-.49,2.37-1.55,2.38-3.17.03-3.1,1.49-5.45,3.79-7.4,1.31-1.11,1.56-1.11,2.54.41,1.34,2.08,2.03,4.29,1.53,6.82-.34,1.71.09,2.13,1.75,1.56,3.11-1.07,5.63,0,7.99,1.85,1.03.8,1,1.19.06,2.1-1.15,1.11-2.33,2.18-3.48,3.29-.38.36-1.03.67-.68,1.35.25.49.82.43,1.29.42,2.52-.1,4.66.94,6.71,2.24.4.26.8.54,1.15.86,1.03.97,1.01,1.48-.23,2.18-1.32.75-2.7,1.38-4.05,2.07-.37.19-.68.45-.69.9,0,.63.47.79.95.87,1.38.22,2.6.71,3.62,1.7.78.76.85,1.46.1,2.27-1.28,1.38-2.84,2.28-4.64,2.83-1.17.36-1.2.82-.21,1.55,1.09.8,2.3,1.43,3.15,2.55,1.4,1.84,1.38,3.48-.23,5.16-1.34,1.39-2.89,2.52-4.71,3.22-.37.14-.76.3-.77.79,0,.49.39.68.76.81,1.78.61,2.91,1.92,3.76,3.52.93,1.75.64,2.37-1.36,2.82-1.32.3-2.66.54-3.99.82-.54.11-1.18.16-1.31.84-.1.53.27.91.68,1.17,1.49.97,2.58,2.38,3.89,3.54,2,1.78,1.64,3.89-.83,5.02-1.74.79-3.52,1.49-5.29,2.22-1.32.55-1.39.66-.67,1.85,1.33,2.18,2.73,4.31,4.07,6.49.75,1.22.65,1.59-.65,2.18-1.53.69-3.07,1.35-4.64,1.92-1.14.41-1.48,1.12-1.15,2.22.69,2.3,1.31,4.62,2.09,6.88.43,1.23.22,2.08-.99,2.49-2.76.94-4.06,2.74-4.09,5.72-.02,1.4-.57,2.81-.59,4.26-.02,1.21-.63,1.71-1.83,1.64-.95-.06-1.91-.02-2.87-.01-.89.01-1.34.47-1.26,1.36.21,2.3.4,4.61.69,6.9.25,1.94.23,2.46-1.54,3.26-2.96,1.34-4.23,3.4-4.05,6.68.13,2.37-.14,2.41-2.44,3.12-.15.05-.31.13-.46.13-3.13.06-4.01,2.08-3.93,4.72.05,1.7-.64,2.54-2.25,2.74-3.91.48-6.31,3.06-8.47,6-.66.9-1.35,1.78-2.04,2.67-.25.32-.54.6-1,.45-.36-.12-.44-.45-.49-.76-.33-1.95-.36-3.96-1.32-5.79-.34-.64.06-1.23.63-1.65.71-.52,1.38-1.1,2.13-1.55,1.56-.92,2.24-2.18,1.92-4-.14-.78-.13-1.59-.12-2.39,0-.95.45-1.51,1.49-1.4.24.02.48.08.72.06,1.57-.12,1.96-.63,1.57-2.18-.48-1.94-1.05-3.86-1.52-5.8-.48-2.02-.34-2.18,1.73-2.28.72-.04,1.44-.06,2.16-.07,2.04-.03,2.15-.06,2.06-2.2-.1-2.31.09-4.63-.24-6.94-.18-1.25.22-1.59,1.43-1.59,2.22.01,2.38-.16,2.23-2.4Z"/>
    <path class="cls-2" d="m360.58,350.09c-.04,1.76-.04,1.75,1.78,1.35,2.7-.6,4.96.22,6.51,2.45,1.46,2.1,2.18,4.43.96,6.98-.49,1.02-1.17,1.9-1.95,2.7-2.73,2.79-5.46,5.59-8.2,8.37-1.26,1.28-1.35,1.24-2.63-.03-5.07-5.07-10.14-10.14-15.23-15.19-1.46-1.45-1.46-1.51.02-2.98,2.38-2.35,4.72-4.75,7.13-7.07,1.44-1.38,2.91-2.66,5.13-2.76,3.92-.17,6.57,2.28,6.48,6.18Zm5,8.4c-.14-1.18-1.07-2.15-2.28-2.81-1.14-.62-2.32-.5-3.33.39-1.73,1.53-3.43,3.08-5.16,4.6-.75.65-.85,1.29-.14,2.01,1.16,1.19,2.48,2.23,3.46,3.59.39.54,1.01.43,1.46-.02,1.78-1.81,3.55-3.63,5.31-5.47.52-.54.7-1.24.68-2.29Zm-8.58-7.22c.15-1.44-1.03-1.93-2.04-2.55-.98-.59-1.81-.28-2.58.44-1.28,1.18-2.61,2.31-3.87,3.52-1.93,1.86-1.91,1.87.04,3.85.45.45.93.88,1.28,1.4.59.88,1.31.96,1.96.25,1.5-1.64,3.25-3.04,4.58-4.83.45-.6.68-1.25.62-2.07Z"/>
    <path class="cls-2" d="m378.37,342.37c.64-.09.89-.59,1.2-1.06,1.94-2.93,3.89-5.85,5.85-8.76.39-.58.68-1.32,1.54-1.36.45-.02,2.58,1.43,2.75,1.81.15.34.02.61-.18.88-3.29,4.41-6.16,9.12-9.27,13.65-.09.13-.19.26-.28.39-.6.89-1.17,1-2.15.32-5.63-3.92-11.34-7.71-16.96-11.64-.88-.61-2.39-.71-2.53-1.94-.12-1.04,1.11-1.66,1.67-2.52,2.42-3.75,4.93-7.44,7.4-11.16.43-.65.75-1.63,1.73-1.3.96.32,1.82.98,2.44,1.82.27.37-.02.78-.26,1.09-2.1,2.81-3.67,5.98-6,8.64-1.18,1.34-1.1,1.81.33,2.85.58.42,1.21.77,1.79,1.2,1.61,1.2,1.73,1.18,2.86-.52,1.68-2.52,3.36-5.05,5.05-7.56,1.02-1.52,1.16-1.54,2.58-.53.2.14.36.32.57.44,1.05.62,1.18,1.23.39,2.29-1.86,2.49-3.57,5.09-5.34,7.65-1.07,1.55-1.04,1.65.6,2.74,1,.66,1.97,1.35,2.95,2.04.39.28.78.56,1.29.56Z"/>
    <path class="cls-2" d="m334.66,389.08c-2.56-.06-4.66-1.74-6.33-3.98-3-4.02-5.89-8.13-8.82-12.21-.92-1.28-.88-1.46.34-2.53,2.42-2.12,2.44-2.13,4.23.36,2.43,3.37,4.83,6.76,7.23,10.14.14.19.25.41.39.6,2.87,4.13,5.86,3.32,9.03.47,1.1-.99,1.25-2.37.8-3.77-.37-1.16-1.04-2.16-1.73-3.14-2.67-3.78-5.32-7.58-8.05-11.32-.61-.84-.63-1.27.2-1.94,2.92-2.36,2.89-2.39,5.1.74,2.35,3.32,4.75,6.62,7.07,9.96,1.05,1.51,1.94,3.09,2.32,4.95.54,2.66-.15,4.96-2,6.83-1.98,2-4.38,3.44-6.99,4.53-.76.32-1.56.32-2.8.31Z"/>
    <path class="cls-2" d="m287.05,409.83c-4.11-.11-7.46-1.77-9.53-5.36-2.13-3.69-2.99-7.72-2.14-11.99.78-3.92,3.04-6.67,6.81-7.99,2.56-.9,5.18-1.44,7.96-.52,1.94.65,3.27,1.92,4.57,3.33.57.62.35,1.18-.31,1.58-.75.45-1.53.86-2.3,1.28-.73.39-1.33.28-1.89-.4-2.23-2.69-4.51-2.27-6.66-1.37-2.51,1.06-3.83,3.12-3.73,5.88.1,3.08,1.04,5.97,2.47,8.68.87,1.64,4.32,3.12,6.01,2.75,2.6-.56,4.4-2.46,4.77-5.05q.26-1.78,2-1.73c.08,0,.16.02.24.03,2.87.06,3.08.42,2.51,3.15-1,4.8-5.24,7.04-9.58,7.73-.39.06-.8,0-1.2,0Z"/>
    <path class="cls-2" d="m324.95,396.4c-.11.87-.79,1.02-1.36,1.26-3.4,1.37-6.81,2.72-10.21,4.09-1.04.42-2.05.87-3.09,1.28-1.33.53-1.67.42-2.2-.88-1.44-3.55-2.85-7.1-4.25-10.66-1.28-3.26-2.55-6.54-3.81-9.81-.57-1.49-.5-1.62,1.06-2.18,2.94-1.06,2.93-1.06,4.08,1.88,1.92,4.9,3.86,9.79,5.8,14.68.78,1.97.82,2,2.77,1.24,2.59-1.01,5.16-2.1,7.74-3.15.7-.28,1.35-1.1,2.17-.43.85.69.97,1.79,1.3,2.69Z"/>
    <path class="cls-2" d="m136.76,388.92c-.18-2.14-.39-4.28-.52-6.43-.12-2.04-1.29-3.36-2.84-4.46-.91-.65-1.52-.51-2.1.51-1.22,2.15-2.3,4.38-3.78,6.37-1.12,1.51-1.07,1.55-2.74.46-.13-.09-.25-.19-.39-.28-2.08-1.25-2.02-1.21-.73-3.37,3.36-5.61,6.92-11.09,10.06-16.83.34-.63.75-1.22,1.11-1.84.41-.72.91-.75,1.58-.34,3.32,2.05,6.71,4,9.97,6.15,1.99,1.31,3.79,2.84,4.19,5.51.69,4.71-3.75,8.83-8.38,7.64-.38-.1-.76-.32-1.14-.32-.57,0-.99.48-.69.95,2.33,3.66.65,7.85,1.58,11.7.16.68-.34,1.07-1.04.75-.57-.27-1.05-.73-1.62-1-1.82-.85-3.05-1.99-2.44-4.23.08-.29-.04-.63-.07-.95Zm5.48-10.59c1.75-.15,2.5-1.33,3.14-2.51.61-1.12.23-2.25-.67-3.04-1.92-1.69-4.31-2.69-6.39-4.16-.53-.38-1.16-.16-1.43.41-.61,1.31-1.5,2.44-2.22,3.67-.55.94-.27,1.65.69,2.16,1.76.94,3.48,1.93,5.24,2.85.55.29,1.18.45,1.63.62Z"/>
    <path class="cls-2" d="m113.94,373.85c-3.28,0-6.04-1.28-8.37-3.52-2.83-2.72-4.51-5.93-4.15-10.01.14-1.56.66-3,1.41-4.29,2.15-3.73,4.86-6.87,9.22-8.19,2.59-.78,5.09-.59,7.46.52,3.85,1.81,6.59,4.72,7.86,8.85.48,1.55.37,3.18-.04,4.73-1.33,4.99-4.42,8.57-8.96,10.93-1.37.71-2.85,1.02-4.41.96Zm1.76-21.82c-.65-.02-1.6.27-2.58.7-3.21,1.42-5.1,4.04-6.52,7.03-1.11,2.33-.56,4.61,1,6.5,1.63,1.98,3.7,3.23,6.49,2.73,4.14-.74,8.46-5.47,8.75-9.68.27-3.76-3.29-7.27-7.15-7.29Z"/>
    <path class="cls-2" d="m63.16,307.12c-.98.04-1.38-.32-1.63-1.03-1.8-5.12-3.65-10.21-5.44-15.33-.54-1.55-.41-1.63,1.16-2.16,5.58-1.91,11.15-3.82,16.7-5.82,1.27-.46,2.6-.72,3.83-1.35,1.43-.73,1.7-.58,2.27.96,1.22,3.29,2.37,6.61,3.57,9.91.55,1.5,1.18,2.97,1.7,4.48.54,1.56.24,1.97-1.77,2.62-1.38.45-1.66.3-2.2-1.28-1.06-3.09-2.12-6.19-3.17-9.28-.64-1.87-1.08-2.07-2.95-1.32-.74.29-1.49.58-2.25.81-1.02.31-1.15.91-.81,1.84,1.1,3,2.13,6.01,3.23,9.01.57,1.56.6,1.55-1.01,2.21-.3.12-.6.24-.87.39-1.09.6-1.58.11-1.9-.94-.61-1.98-1.27-3.95-1.93-5.91-.41-1.21-.88-2.4-1.33-3.59-.37-1.01-.93-1.48-1.97-.73-1.06.77-2.37.92-3.57,1.32-1.61.53-1.74.78-1.15,2.43,1.16,3.23,2.35,6.45,3.5,9.68.64,1.79-.28,3.04-1.99,3.08Z"/>
    <path class="cls-2" d="m197.24,387.74c-.08.39-.13.79-.25,1.17-.43,1.37-.76,1.57-2.31,1.22-3.12-.69-6.24-1.4-9.34-2.16-2.2-.54-2.44-.41-2.78,1.83-.04.24-.06.48-.1.71-.52,2.9-.55,3.08,2.41,3.57,2.53.42,4.95,1.25,7.48,1.62,1.92.28,2.05.6,1.54,2.83-.31,1.37-.83,1.59-2.5,1.17-2.71-.68-5.41-1.38-8.13-1.98-2.36-.51-2.36-.45-2.82,1.84-.19.94-.5,1.85-.72,2.78-.42,1.72-.17,2.16,1.53,2.54,3.42.76,6.85,1.5,10.28,2.24,1.55.34,1.74.65,1.4,2.34-.32,1.58-.88,2.04-2.25,1.7-5.12-1.24-10.23-2.5-15.41-3.47-1.39-.26-1.71-.64-1.36-1.95,1.67-6.34,2.91-12.77,4.31-19.17.21-.93.37-1.88.59-2.81.26-1.07.89-1.4,1.97-1.05,4.95,1.59,10.14,2.19,15.17,3.5.91.24,1.54.41,1.3,1.51Z"/>
    <path class="cls-2" d="m85.66,304.95c2.46-.21,4.3,1.32,5.83,3.04,1.93,2.17,3.07,4.84,3.45,7.76.33,2.55-1.07,4.4-2.7,6.11-.39.41-.96.35-1.27-.07-.61-.84-1.15-1.72-1.64-2.64-.56-1.04.2-1.77.67-2.61.95-1.68-.03-4.68-1.94-6.16-.19-.15-.39-.28-.61-.38-.76-.37-1.46-1.11-2.41-.49-.86.56-1.47,2.16-1.19,3.17.57,2,1.12,4,1.76,5.97.48,1.49.52,3,.32,4.5-.41,2.97-2.14,4.89-4.92,5.94-2.87,1.09-5.47.26-7.56-1.61-2.75-2.45-4.39-5.67-4.87-9.38-.41-3.13,1.47-5.27,3.33-7.39.32-.36.76-.24,1.04.11.4.49.74,1.04,1.11,1.56q1.18,1.63.07,3.2c-1.88,2.65-.47,7.51,2.56,8.78,1.18.49,2.36.51,3.42-.28,1.12-.84,1.17-2.02.87-3.25-.64-2.72-1.25-5.45-1.97-8.15-.83-3.13,2.78-8.25,6.67-7.75Z"/>
    <path class="cls-2" d="m100.17,324.24c1.75,2.12,3.48,4.18,5.18,6.27.81.99,1.57,2.01,2.33,3.04,1.97,2.66,2.37,5.97.69,8.3-1.9,2.63-5.04,4.94-8.82,4.07-1.54-.36-2.71-1.31-3.81-2.37-1.45-1.39-2.55-3.07-3.74-4.67-.63-.84-1.19-.92-1.98-.29-1.73,1.41-3.5,2.77-5.23,4.2-1.31,1.08-1.61,1.16-2.32-.23-.49-.95-2.08-1.36-1.57-2.72.37-.99,1.5-1.39,2.3-2.04,2.77-2.29,5.56-4.55,8.37-6.79,2.8-2.24,5.64-4.43,8.6-6.76Zm.45,16.84c2.69.04,4.23-2.25,3.39-4.85-.64-1.97-2.14-3.31-3.28-4.91-.47-.67-1.09-.57-1.65-.12-1.42,1.15-2.82,2.33-4.22,3.5-.43.36-.57.85-.2,1.25,1.46,1.56,2.6,3.42,4.37,4.69.47.34,1.02.43,1.58.45Z"/>
    <path class="cls-2" d="m175,382.37c-.31.91-.55,1.93-1.23,2.74-.46.55-.99.29-1.52.05-1.23-.57-2.46-1.13-3.71-1.66-1.58-.68-1.84-.58-2.43,1.02-2.07,5.53-4.1,11.06-6.19,16.58-.71,1.88-.81,1.96-2.5,1.12-.86-.42-2.29.12-2.57-1.31-.2-1.04.67-1.75.99-2.63,1.67-4.65,3.4-9.27,5-13.95.32-.93,1.39-1.77.76-2.87-.56-.98-1.82-.88-2.71-1.38-.69-.39-1.46-.65-2.21-.89-.67-.21-1.65-.16-1.62-1.08.04-1,.46-2.04,1.11-2.81.47-.56,1.2-.07,1.79.14,2.86,1,5.71,2.02,8.57,3.03,2.4.85,4.7,1.99,7.17,2.63.61.16,1.25.38,1.3,1.27Z"/>
    <path class="cls-2" d="m281.69,310.42c4.2.19,6.66,3.61,5.65,7.51-.45,1.71-.36,1.85,1.2,1.93,2.99.16,4.74,1.44,5.72,4.17.92,2.55.19,5.4-1.83,7.2-1.56,1.4-3.45,2.3-5.2,3.39-2.23,1.39-4.54,2.66-6.83,3.96-1.13.64-1.62.54-2-.61-.87-2.61-2.63-4.72-3.9-7.1-2.1-3.94-4.41-7.76-6.59-11.65-.83-1.49-.61-1.67.96-2.61,3.08-1.83,6.18-3.63,9.43-5.15,1.14-.53,2.26-1.24,3.39-1.05Zm4.86,12.81c-.28.04-.6.05-.9.15-2.52.81-4.72,2.26-6.95,3.62-.59.36-.53.85-.18,1.42.75,1.22,1.44,2.47,2.12,3.72.37.67.92.96,1.58.66,2.45-1.14,4.89-2.34,6.82-4.28.85-.85,1.02-1.93.43-3.08-.61-1.21-1.46-2.06-2.93-2.21Zm-2.86-5.23c.03-2.39-1.93-3.78-3.91-2.91-1.89.83-3.71,1.83-5.55,2.77-1.03.52-1.05,1.28-.47,2.17.56.86,1.15,1.72,1.64,2.63.49.9,1.12,1.06,1.96.58,1.65-.96,3.29-1.91,4.91-2.91.93-.57,1.56-1.36,1.42-2.33Z"/>
    <path class="cls-2" d="m163.52,298.85c4.86,0,10.78,4.83,11.89,9.75.39,1.75-.13,3.32-.59,4.92-.18.64-.73.81-1.35.46-.83-.48-1.64-.99-2.46-1.47-.67-.4-.73-1.01-.58-1.67.71-3.07-.92-4.96-3.23-6.56-2.45-1.7-4.87-1.34-7.17.13-2.49,1.59-4.21,3.9-5.28,6.64-.78,1.99-.48,3.9.75,5.68,1.45,2.11,3.57,3.14,5.94,3.72,1.29.32,2.54-.45,3.16-1.64.38-.74.01-1.22-.51-1.65-.86-.72-1.73-1.41-2.61-2.11-.62-.5-.64-.98-.14-1.62,1.76-2.26,1.8-2.25,3.91-.4,1.62,1.41,3.11,2.96,4.94,4.14,1.12.72,1.15,1.34.28,2.33-1.53,1.73-3.1,3.43-4.66,5.13-.88.96-1.84,1.17-3.21.95-3.91-.65-7.07-2.58-9.57-5.47-3.16-3.65-4.25-7.82-2.06-12.43,1.58-3.34,3.88-6.03,7.24-7.69,1.6-.79,3.33-1.08,5.29-1.13Z"/>
    <path class="cls-2" d="m195.96,325.26c.15,5.35-3.74,11.59-8.33,13.65-.43.19-.9.32-1.36.44-6.47,1.61-13.9-3.05-15.07-9.59-.7-3.91.77-7.37,2.78-10.62,1.88-3.04,4.64-4.75,8.17-5.25,5.23-.74,11.42,2.94,13.28,7.88.47,1.23.29,2.53.54,3.48Zm-11.79-7.12q-1.99.05-2.79.48c-3.49,1.86-6.17,7.64-5.28,11.51,1.2,5.2,7.57,6.41,10.41,3.96,2.39-2.06,3.7-4.54,4.47-7.43,1.16-4.38-2.27-8.63-6.82-8.51Z"/>
    <path class="cls-2" d="m309.77,311.34c-.6-.03-.95.14-1.26.42-1.9,1.71-3.84,3.37-5.68,5.13-1.26,1.21-1.24,1.59-.41,3.1.08.14.17.27.25.41,1.46,2.71.95,4.38-1.75,5.85-.53.29-.97.18-1.21-.31-.39-.78-.73-1.6-1-2.43-2.13-6.69-4.86-13.16-7.25-19.76-.44-1.22-.61-2.1.64-2.85.4-.24.7-.64,1.06-.96,1.56-1.37,1.63-1.36,3.58-.4,6.64,3.31,13.29,6.6,19.93,9.9.36.18.74.32,1.05.56.55.42.63.96.03,1.37-.73.5-1.45.99-2.04,1.65-.69.78-1.44.85-2.34.29-.87-.55-1.8-1.02-2.71-1.51-.34-.19-.7-.35-.91-.46Zm-9.4,2.02c.62-.06.99-.24,1.23-.57.67-.92,1.64-1.47,2.54-2.12,1.32-.97,1.23-1.49-.27-2.37-1.91-1.12-4.05-1.83-5.8-3.24-.32-.26-.73-.33-1.07.02-.26.26-.22.58-.08.88,1.06,2.14,1.84,4.38,2.59,6.63.17.5.51.78.86.76Z"/>
    <path class="cls-2" d="m224.08,350.19c-.08-.02-.16-.03-.24-.04q-3.57-.54-4.12-4.22c-.28-1.84-1-2.64-2.92-2.79-2.08-.16-4.12-.5-6.15-.89-1.03-.2-1.69.11-2.15,1.02-.5,1-1.03,1.98-1.56,2.97-.47.87-1.16,1.16-2.18,1.06-3.67-.37-3.71-.55-1.82-3.68,2.8-4.65,5.45-9.38,8.18-14.07.92-1.59,1.92-3.13,2.8-4.74.52-.93,1.19-1.11,2.18-.95,3.54.6,3.54.57,4.34,4.07,1.61,6.99,3.24,13.97,4.85,20.96.26,1.13-.04,1.43-1.21,1.31Zm-6.99-10.78c.9.03,1.09-.23.87-1.46-.4-2.18-.81-4.36-1.2-6.54-.08-.46-.04-1.03-.64-1.11-.56-.08-.83.43-1.03.84-.98,1.99-1.96,3.98-3.17,5.86-.59.92-.35,1.47.76,1.71,1.39.31,2.82.46,4.42.7Z"/>
    <path class="cls-2" d="m270.03,338.2c0,3.08-1.28,5.14-3.88,6.51-2.09,1.1-4.33,1.79-6.61,1.98-3.46.29-6.43-.91-8.12-4.98-1.47-3.55-2.32-7.3-3.49-10.94-.48-1.52-.96-3.04-1.46-4.56-.31-.93-.08-1.56.91-1.84.54-.15,1.06-.35,1.6-.49,1.59-.41,1.89-.22,2.37,1.41,1.29,4.36,2.63,8.7,3.87,13.08,1.44,5.08,5.63,5.13,9.16,2.35,1.35-1.06,1.15-2.75.76-4.24-.6-2.32-1.32-4.6-2-6.9-.75-2.53-1.53-5.04-2.28-7.57-.43-1.45-.42-1.46,1.14-1.93,3.08-.94,3.1-.94,3.93,2.1,1.22,4.46,2.83,8.81,3.79,13.35.2.94.44,1.87.29,2.67Z"/>
    <path class="cls-2" d="m239.93,328.67q-3.36.1-2.98,3.91c.52,5.17.38,10.37.74,15.54.08,1.11-.38,1.65-1.51,1.62-.56-.02-1.12,0-1.67.02-1.24.05-1.61-.56-1.66-1.76-.22-5.66-.51-11.32-.79-16.97-.08-1.7-.46-2.04-2.24-1.95-1.19.06-2.38.26-3.57.34-1.54.11-1.7-.08-1.89-1.99-.16-1.66-.04-1.89,1.49-1.99,3.02-.2,6.05-.34,9.08-.49,2.23-.11,4.46-.2,6.69-.33,2.05-.12,2.42.17,2.49,2.15.06,1.41-.27,1.69-2.12,1.8-.56.03-1.12.06-2.07.11Z"/>
    <path class="cls-2" d="m197.78,345.2c-.47-.09-1.02-.17-1.56-.3-1.65-.41-1.98-.82-1.29-2.31.82-1.79.76-3.73,1.25-5.57,1.31-4.92,2.46-9.88,3.66-14.83.39-1.59.49-1.7,2.08-1.43,3.04.51,3.27.24,2.43,3.52-1.4,5.48-2.63,11-3.9,16.5-.27,1.17-.92,2.2-1.02,3.42-.08.92-.74,1.13-1.64,1Z"/>
  </g>
</svg>