<?xml version="1.0" encoding="UTF-8"?>
<svg id="Layer_1" xmlns="http://www.w3.org/2000/svg" version="1.1" viewBox="0 0 400 400">
  <!-- Generator: Adobe Illustrator 29.4.0, SVG Export Plug-In . SVG Version: 2.1.0 Build 152)  -->
  <defs>
    <style>
      .st0 {
        fill: #eedc11;
      }

      .st1 {
        fill: #312c65;
      }
    </style>
  </defs>
  <path class="st1" d="M366.5,182.6c0,90.2-73.3,163.4-163.7,163.4S39.2,272.8,39.2,182.6,112.4,19.3,202.8,19.3s163.7,73.1,163.7,163.4ZM66.3,177.9c1,1,25.7-.8,29.5,0v-65.2c11.2-15.6,24.7-30.5,41.4-40.3,1.1-.6,5.9-3.9,6.7-3l.4,93.4h42.2c0,0,1.3-1.2,1.3-1.3V55c-2-.3-5.8.8-7.2-.8s-3.3-12.3-3.8-15.2c-56.8,9.5-103.9,53.7-117.6,109.4-.6,2.3-3.2,14.3-2.9,15.4.7,2.1,8.5,4.6,9.6,6.5s0,7.1.4,7.6ZM217.3,54.2v108.6h43.9v-93.4c13.2,5.8,26.4,17,35.9,27.8s12.2,15.4,12.2,16.4v64.4h29.9c2.2,0,.7-6.9,1.4-8.2s8.5-4,8.8-5.6c-8.4-62.7-58.6-115.3-121.4-125.1-1.9.4-2.3,12.7-3.5,14.4s-6.7.3-7.2.8ZM167.5,185.5c4.3,1,11.2,9.4,14.8,10.1s43,.4,45.1-.4,14.4-10,14.4-10.9c-4.2-1.9-11.9-10.3-15.8-11.2-5.9-1.4-35.7-.9-42.9-.2s-12.6,7.4-14.7,10.5-1.2.9-.8,2.1ZM95.9,192.2h-29.5c-.4,0,.5,5.7-.4,7.6s-9.1,4.4-9.4,6.3c9,61.9,58.6,112.7,120.3,123.4.5-2,2.2-14.4,2.7-15,1.1-1.3,8.3-.5,8.3-1v-106h-44.7v92.6c-2.5-.7-5.2-2.6-7.4-4-15.1-10-27.8-24.4-38.8-38.7-.5-21.7-1.4-43.3-1-65ZM339.2,192.2h-29.5c0,0-1.3,1.2-1.3,1.3v63.1c-12.6,17-27.5,32.7-46,43.3,0-1.3-1.3-3.7-1.3-4.6v-88h-43.9v106c1.7.2,5.2-.7,6.3.8s3.2,14.6,3.8,15.1c53.9-8.2,100.2-48.8,116.4-100.5,1.3-4.2,5.9-20.1,5.1-23.4s-7.8-4.1-8.3-5c-.9-1.6,1-7.5-1.4-8.2Z"/>
  <path class="st1" d="M377.5,228.4c1,.7,5.6-5.5,11.7-.4s.3,16.6-2.1,22.2l-26.4-7.6c.6-6.3,2.5-20.2,11.1-19.2,4.8.6,4.8,4.3,5.7,4.9ZM366.6,238.4c.2.2,5.1,1.9,5.9,1.4,1-2.3,3.7-8,1.3-9.8-5.8-4.4-7.9,7.3-7.2,8.4ZM385.1,243.6c0-3.2,4.1-10.3-.6-11.6s-7.6,9.2-7,9.9,6.4,1.5,7.6,1.7Z"/>
  <path class="st1" d="M274.6,351.3c6.3-.2,8.6,7.2,5.8,12.1-1.6,2.8-17,8.4-18.4,7.2s-7.4-23.4-8.5-26.8c9.5-3.7,26.2-9.5,21,7.5ZM270.2,350.3c1.7-1.6,1.2-4.9-1.2-5.6s-8.2,1.1-8.6,1.6c-.6.9.7,6.2,2.1,6.6s7.2-2.2,7.7-2.7ZM265.4,364.7c4-.2,14.2-3,9.6-8.3-2.1-2.5-10.6-.1-11.3.9s2,5.8,1.7,7.5Z"/>
  <path class="st1" d="M95,337.8c2.7-1.5,8.6-13.9,10.6-14.2s2.4,1.6,3.6,1.7c-1.2,3-14.2,23.9-15.6,24.3-7.9,1.9-2.6-18.9-3.7-22.7-2.9,2.3-6.7,11.4-9.3,13.1s-3.8-.3-4.1-1.8,13.4-22.8,14.8-23.1c2.1-.5,4.2,1.2,5.1,3.1l-1.5,19.7Z"/>
  <path class="st1" d="M44.3,248.7c2,6.9,11.5,16.7,2.6,22.2-6.3,3.9-9.5-1.2-10.5-1.2s-6.4,13.6-8.8,11.8c-5-7.9,6.3-11.8,4.2-20.2-5.7-.9-12.8,9.5-13.4-.8l26-11.8ZM35.1,257.9c.2,3.5,6.2,13.3,9.7,7.6s-1.4-8.8-3-9.8-4.8,2.4-6.8,2.2Z"/>
  <path class="st1" d="M70.3,300.2c4.1-.8,7.7.6,10.7,3.2,14.6,12.2-9.5,36.7-21.5,20.6-6.5-8.8,1.2-21.8,10.7-23.8ZM70.3,306.1c-1.3.3-3.4,2.2-4.4,3.2-10.3,11.7,4.4,20.9,12.6,8.3,4.4-6.8,0-13.7-8.2-11.5Z"/>
  <path class="st1" d="M291.3,327.1c11.3-1,21.3,17.1,12.3,25.9-13.6,13.2-32-10.2-20.9-21.7,1.9-2,5.9-3.9,8.6-4.1ZM291.2,332.2c-11.8,1-5.2,21.3,5.6,19,9.8-2.1,2.6-19.7-5.6-19Z"/>
  <path class="st1" d="M374.2,198.1c0,2.1-2.4,13.5-1.6,14.3s4.8.6,5.9.9l1.7-13.5c1.1,0,4.9.3,5.1,1.4.3,1.7-2.4,12.3-1.8,12.9l7.2.9c1,0,1.7-12.9,2.5-14.4s4.4,0,4.6.1c.7.8-1.9,17.5-2.5,20l-28.6-3.3,2.5-20.2,5.1.8Z"/>
  <path class="st1" d="M21.4,225.3c6-1,12-.2,15.3,5.4,9.4,16.2-17.3,28.5-26,15-5.8-9,1.1-18.8,10.7-20.4ZM31.5,242.4c2-2,2.4-4.8,1.8-7.5-2-8.5-22.6-5-18.8,7s13.4,4.2,17,.5Z"/>
  <path class="st1" d="M251,345.4c.2.2.7,4.2.9,5-2,.4-13.8,2-14.3,2.5s1.4,4.6.8,5.9l14.3-1.7c3,7.3-11,4.9-12.6,6.8s1.4,5.9.8,7.6c.9.9,12.4-3,14.6-2.6s1.5,4,1.4,5.1l-20.2,3.3-5.1-28.6c2.6.3,18.6-4,19.4-3.4Z"/>
  <path class="st1" d="M31.7,203.9c-.7.8-10.1,1-10.8,1.8s1.6,8,.8,10l11.8-.8c-.2,1.1.3,4.6,0,5-1,1-25.1,3.1-28.6,3.4.2-1.2-.4-4.4,0-5s9.8-1.3,11.7-1.8l-.8-10c-5.7-.7-13.9,4.8-13.5-4.2l26.6-3.4c2.8-.9,3.9,3.8,2.9,5Z"/>
  <path class="st1" d="M149.7,343.8c.6,1,.2,4.6-1.2,4.9-2.3-.2-11.8-4.7-13-3.8s-2.1,4.5-1.3,5.6,10.8,2.8,11.4,3.4.4,4.9-2,5-10.8-4.6-12.3-3.3-1.6,5.3-1.6,5.6c-.2,3,12.4,4.4,13.3,5.4s.2,4-.7,4.6c-1.8,1.3-16.2-5.3-19.4-5.5,1.5-3.2,7.4-26.1,8.5-26.8s17.8,4.2,18.3,5.1Z"/>
  <path class="st1" d="M199.6,351.3c7.7-.4,5.1.7,5,5.4-.2,8.9,2.1,24.6-11.2,24-16.2-.7-8.9-20.1-9.8-30.3,8.7-.8,5.2,2.8,5,8s-.7,14.2,1.2,15.7,7.5,1.5,8.6-1.7.5-20.3,1.2-21.1Z"/>
  <path class="st1" d="M351.4,259.6c1.2-.9,16.3,8.7,19.2,9.1,4.1.6,8.6-5.2,4-9.1-2.7-2.2-16.6-7.7-17.2-8.5s-.1-5.4,2.8-4.9,18,8.6,19.8,10.6c5.3,5.6-1.1,18.5-8.6,17.9-2.2-.2-19.2-8-20.9-9.5s.8-3.4.9-5.5Z"/>
  <path class="st1" d="M44.4,296.6c-1.1,1,8.1,10.4,8.4,11.4.4,1.7-3.1,3-4.5,2.9-2-4.7-9.2-10.4-11.1-14.4s1.4-5.9,3.4-5.9h22.3c-.9-2.3-11-11.8-3.8-11.8,1.6,0,12,13,12.2,14s-2.6,3.7-2.9,3.7h-24Z"/>
  <path class="st1" d="M330.6,311.5c-4.9-5-6.4-11.1-2-16.9,2.4-3.2,11.3-7.7,12.6-3.3s-5.8,4.1-7.9,5.5c-8.1,5,7.5,19.3,13.9,13.9,5.1-4.3-3.6-10,3.3-11.9s4.6,6.6,4.2,9.3c-.7,5-7.2,9.9-12.1,9.7s-9.7-3.9-12-6.1Z"/>
  <path class="st1" d="M180.9,350.6c.6,1,.2,4.5-1.2,4.8s-11.7-2.1-12.2-1.6l-.8,6.7c1.6.4,10.6.5,11,.8s-.2,4,0,5.1c-2.6,1-9.2-1.8-11-.5s-.7,10.4-1.7,11.4-3.9-.2-5,0l2.5-28.6c.6-.7,17.9,1,18.4,1.8Z"/>
  <path class="st1" d="M228.3,349.6c-.2,1,.3,4.8,0,5.1s-6.4.1-7.6.8l2.5,23.6c-1.1-.2-5.6.3-5.9,0-.8-.9-1.2-20.5-1.7-23.6-4.8.8-9.4,2.8-8.4-4.2l21.1-1.7Z"/>
  <path class="st1" d="M129.5,336.2c.6.9-1,4.7-2.1,5l-7.1-3.4c-1.4,2.7-9.1,19.3-10.3,20-1.8,1-5.2-.6-4.6-3.2,1.1-4.3,9.9-15.4,9.8-19s-5.5-3.2-5.9-3.8c-1.1-1.6,1.3-4.6,4.2-3.8,4.8,1.2,10.6,7.1,16,8.1Z"/>
  <path class="st1" d="M317,336.8c3.2,1.9,8.2-5.9,10.6-6.5s4.5,2.1,3.2,4.1-11.6,9.4-12.3,9.7-1.2.6-2,.4c-1.8-.5-13.2-17.9-16.1-20.2-1.2-2.1,2-6.2,4.2-4.1s11,15.8,12.4,16.6Z"/>
  <path class="st1" d="M361.5,290.7c.5-.3,4.9-9,5.9-10.4s3.4.4,3.9,1.2c1.6,2.6-7.1,13-8.6,16.1-3.1-1.1-23.1-12.5-23.8-13.7-1.1-1.9,1-5.5,3.4-4.8l19.2,11.7Z"/>
  <path class="st1" d="M55.2,271.5c.3.2,2.1,3.6,1.8,4-7.3,2.7-15.1,11-22,13.9s-4.6-.5-4.7-3.8c7.2-3.1,14.7-11,21.6-13.8s2.2-.9,3.2-.3Z"/>
  <path class="st0" d="M217.3,54.2c.5-.5,6,.9,7.2-.8s1.6-14,3.5-14.4c62.8,9.8,113.1,62.4,121.4,125.1-.3,1.6-8.2,4.6-8.8,5.6s.7,8.2-1.4,8.2h-29.9v-64.4c0-1-10.6-14.6-12.2-16.4-9.5-10.8-22.7-21.9-35.9-27.8v93.4h-43.9V54.2Z"/>
  <path class="st0" d="M66.3,177.9c-.4-.4.7-5.7-.4-7.6s-8.9-4.4-9.6-6.5,2.3-13.2,2.9-15.4c13.7-55.7,60.9-99.9,117.6-109.4.5,2.9,2.4,13.5,3.8,15.2s5.2.6,7.2.8v106.5c0,0-1.2,1.3-1.3,1.3h-42.2l-.4-93.4c-.8-.9-5.6,2.4-6.7,3-16.7,9.8-30.2,24.8-41.4,40.3v65.2c-3.8-.8-28.5,1-29.5,0Z"/>
  <path class="st0" d="M339.2,192.2c2.4.7.5,6.6,1.4,8.2s8,3.8,8.3,5c.8,3.3-3.8,19.2-5.1,23.4-16.2,51.7-62.5,92.3-116.4,100.5-.6-.5-2.5-13.3-3.8-15.1s-4.6-.6-6.3-.8v-106h43.9v88c0,.9,1.3,3.4,1.3,4.6,18.5-10.6,33.4-26.4,46-43.3v-63.1c0,0,1.2-1.3,1.3-1.3h29.5Z"/>
  <path class="st0" d="M95.9,192.2c-.4,21.8.5,43.4,1,65,11,14.3,23.8,28.6,38.8,38.7,2.2,1.5,4.8,3.3,7.4,4v-92.6h44.7v106c0,.4-7.3-.3-8.3,1s-2.2,13-2.7,15c-61.7-10.7-111.3-61.5-120.3-123.4.3-1.9,8.4-4.2,9.4-6.3s0-7.6.4-7.6h29.5Z"/>
  <path class="st0" d="M167.5,185.5c-.3-1.2.3-1.4.8-2.1,2.2-3.2,10.9-10.2,14.7-10.5,7.2-.7,36.9-1.1,42.9.2s11.5,9.3,15.8,11.2c0,.9-13.5,10.6-14.4,10.9-2.1.8-41.5,1.1-45.1.4s-10.4-9.1-14.8-10.1Z"/>
</svg>