<?xml version="1.0" encoding="UTF-8"?>
<svg id="Layer_1" xmlns="http://www.w3.org/2000/svg" version="1.1" viewBox="0 0 200 200">
  <!-- Generator: Adobe Illustrator 29.4.0, SVG Export Plug-In . SVG Version: 2.1.0 Build 152)  -->
  <defs>
    <style>
      .st0 {
        fill: #19755a;
      }

      .st1 {
        fill: #fff;
      }

      .st2 {
        fill: #b73643;
      }
    </style>
  </defs>
  <path class="st2" d="M100.41,1.6c2.94,2.99,6.5,5.16,10.02,7.33,16.06,9.87,33.64,15.61,52.08,18.97,8.56,1.56,17.2,2.41,25.89,2.67,1.18.04,1.8.22,1.81,1.7.31,35.9-7.01,69.95-24.76,101.42-15.41,27.33-36.82,48.74-64.07,64.3-1.14.65-1.89.5-2.95-.11-39.11-22.58-64.91-55.83-78.88-98.51-7.11-21.72-9.97-44.09-9.78-66.9.01-1.65.65-1.88,2.02-1.92,16.22-.46,32.09-3.11,47.56-8.03,14.1-4.48,27.37-10.66,39.13-19.79.41-.32.99-.51,1.09-1.14h.82ZM13.7,41.52c.52,19.46,3.45,38.52,9.56,57.02,13.4,40.58,37.84,72.48,74.64,94.63,1.54.93,2.65.94,4.21.01,23.66-14.1,42.74-32.86,57.08-56.36,18.87-30.94,27.09-64.79,27.17-100.82,0-1.61-.73-1.75-1.94-1.8-9.1-.37-18.11-1.53-27.02-3.4-20.33-4.26-39.51-11.28-56.4-23.7-.87-.64-1.37-.42-2.12.13-18.77,13.64-40.09,20.84-62.69,24.77-6.81,1.19-13.67,1.96-20.58,2.19-1.42.05-2.1.4-1.95,2,.16,1.76.04,3.55.04,5.33Z"/>
  <path class="st1" d="M13.7,41.52c0-1.78.13-3.57-.04-5.33-.15-1.61.53-1.96,1.95-2,6.91-.23,13.77-1,20.58-2.19,22.6-3.94,43.92-11.13,62.69-24.77.75-.54,1.24-.77,2.12-.13,16.9,12.43,36.08,19.44,56.4,23.7,8.91,1.87,17.92,3.03,27.02,3.4,1.21.05,1.94.19,1.94,1.8-.08,36.04-8.29,69.88-27.17,100.82-14.34,23.5-33.42,42.25-57.08,56.36-1.56.93-2.67.92-4.21-.01-36.8-22.15-61.24-54.05-74.64-94.63-6.11-18.5-9.04-37.56-9.56-57.02ZM137.75,40.91c1.58,4.83,3.08,9.43,4.57,14.04.1.3.29.62-.05.92-.69.61-5.15.01-5.68-.84-1.45-2.3-3.64-3.26-6.23-3.36-3.21-.12-6.43-.12-9.64-.13-4.65-.02-9.31.07-13.96-.05-1.73-.04-2.2.48-2.15,2.18.12,3.52.03,3.45,3.6,3.79,11.6,1.11,22.44,4.62,32.46,10.57,1.51.89,3.89,1.47,4.16,2.94.23,1.27-1.6,2.85-2.33,4.38-.85,1.81-1.68,1.84-3.35.77-10-6.47-20.99-10.11-32.84-11.18-1.23-.11-1.74.12-1.7,1.47.09,2.6.07,5.2,0,7.8-.03,1.11.39,1.4,1.43,1.37,2.32-.06,4.65-.06,6.98-.02,2.56.05,5.08-.05,7.24-1.68.68-.51.9-.19,1.11.47,1.2,3.92,2.42,7.83,3.67,11.73.3.95,0,1.22-.93,1.2-1.86-.04-3.79.43-4.92-1.86-.54-1.1-1.87-1.52-3.12-1.77-3.46-.7-6.96-.21-10.44-.36-.86-.04-1,.48-1,1.18.01,1.71.08,3.43-.02,5.13-.09,1.38.44,1.72,1.76,1.72,21.83-.03,43.65-.04,65.48,0,1.35,0,1.84-.45,2.2-1.75,4.45-15.89,6.6-32.11,7.16-48.57.05-1.37-.27-1.95-1.73-2.01-4.92-.21-9.8-.88-14.66-1.66-22.78-3.67-44.3-10.73-63.59-23.75-.84-.57-1.43-.71-2.35-.08-15.85,10.85-33.48,17.45-52.09,21.66-8.61,1.95-17.32,3.32-26.14,3.83-1.49.09-2.07.55-1.87,2.09.2,1.49.19,3,.25,4.51.64,14.95,2.93,29.64,6.93,44.06.33,1.18.73,1.7,2.04,1.69,5.88-.06,11.77-.04,17.65-.01.94,0,1.49-.21,1.81-1.19,3.3-9.94,9.64-17.5,18.3-23.21.52-.34,1.03-.6,1.01-1.38-.14-5.4.25-10.81-.25-16.21-.26-2.83-1.26-5.47-2.43-8.21,1.55.47,2.77.9,4.03,1.2,8.65,2.07,17.44.82,26.17,1.15.49.02.85-.05,1.01-.7.94-3.69-.62-7.74-3.83-9.93-.69-.47-1.69-.58-2.05-1.54,3.07-1.49,6.14-1.5,9.13-.03,1.11.54,1.91.48,3-.05,2.97-1.42,6.01-1.41,9.17.17-.33.27-.5.48-.72.58-4.12,1.93-5.65,5.22-5.43,9.66.08,1.61.55,1.88,2.01,1.86,7.11-.07,14.23-.08,21.35-.01,3.45.03,6.83-.09,9.81-2.6ZM171.48,97.9c-.21-.08-.27-.12-.33-.12-21.75-.02-43.5-.04-65.26-.09-1.23,0-1.27.6-1.27,1.52.02,8.28.03,16.56-.01,24.84,0,1.21.33,1.47,1.55,1.33,10.28-1.19,19.63-4.64,27.77-11.15.47-.38.88-.87,1.58-.87,3.18,0,6.35,0,9.62,0-.24,1.11-.94,1.59-1.48,2.16-10.07,10.61-22.7,15.85-37,17.46-1.54.17-2.07.55-2.05,2.18.1,6.5.18,13.01,0,19.5-.15,5.33.07,10.3,6.44,12.5-1.79,1.22-3.45,1.82-4.99,1.3-4.03-1.36-7.92-1.47-11.97-.03-1.56.56-3.3.05-4.99-1.33,5.85-2.08,6.49-6.6,6.32-11.73-.2-5.95-.05-11.91-.05-17.86,0-4.07.01-4.15-3.96-4.71-5.15-.73-10.14-2.06-15.21-3.92,0,1.64.07,3.06-.01,4.48-.31,5.34-.17,10.46,6.35,12.69-2.17,1.61-4.32,1.84-6.18,1.15-3.28-1.23-6.28-1.31-9.58-.02-1.86.72-4.09.58-6.1-1.17,5.2-2,6.57-5.83,6.18-10.79-.25-3.13-.13-6.29-.04-9.44.04-1.26-.42-1.94-1.43-2.62-8.91-5.99-15.47-13.78-18.38-24.31-.17-.61-.3-1.15-1.15-1.15-5.73.03-11.46.01-17.12.01-.23.6,0,.96.13,1.35,12.79,37.37,35.35,67.06,68.98,88.12,1.62,1.01,2.76.97,4.35-.02,29.48-18.39,50.68-43.8,64.26-75.68,1.89-4.44,3.64-8.95,5.03-13.58ZM95.35,111.66c0-4.1-.06-8.2.03-12.3.03-1.38-.43-1.71-1.74-1.69-5.26.07-10.52.07-15.78,0-1.31-.02-1.74.31-1.72,1.68.07,6.56.06,13.12.01,19.67,0,1.13.35,1.68,1.4,2.11,5.26,2.19,10.71,3.59,16.37,4.25,1.38.16,1.45-.41,1.44-1.45-.03-4.1-.01-8.2-.01-12.3ZM85.84,75.57c2.66,0,5.33-.05,7.99.02,1.15.03,1.56-.3,1.52-1.49-.08-2.39-.1-4.79,0-7.17.06-1.45-.36-1.91-1.84-1.73-4.62.57-9.13,1.57-13.51,3.16-4.11,1.5-4.07,1.51-3.86,5.94.05.97.31,1.3,1.29,1.28,2.8-.05,5.6-.02,8.4-.02ZM85.67,91.31c1.16,0,2.32.04,3.48,0,1.97-.08,4.54.84,5.74-.34,1.3-1.28.24-3.89.45-5.9.16-1.5-.49-1.82-1.87-1.79-3.68.08-7.37-.02-11.06.05-2.02.04-4.74-.91-5.88.38-1.21,1.36-.26,4.04-.36,6.14,0,.07,0,.14,0,.2-.14,1.01.36,1.29,1.3,1.28,2.73-.04,5.46-.01,8.19-.01ZM76.18,61.55c6.01-2.2,12.02-3.63,18.22-4.13.86-.07.94-.62.93-1.28,0-1.09-.04-2.18.01-3.27.04-.93-.26-1.36-1.27-1.35-5.59.03-11.19.03-16.78,0-.93,0-1.14.41-1.13,1.24.03,2.86.01,5.72.01,8.79ZM66.77,114.77c0-5.59-.02-10.71.02-15.82,0-1-.33-1.27-1.29-1.26-3.14.05-6.28.05-9.43,0-1.09-.02-1.48.18-1.04,1.37,2.3,6.25,6.21,11.27,11.74,15.71ZM66.77,76.11c-.24.02-.47-.03-.58.07-4.68,3.75-8.18,8.39-10.54,13.9-.47,1.1-.01,1.26.95,1.25,2.94-.03,5.88-.05,8.82.01,1.09.02,1.39-.35,1.38-1.41-.05-4.58-.02-9.16-.02-13.82Z"/>
  <path class="st2" d="M137.75,40.91c-2.99,2.51-6.36,2.63-9.81,2.6-7.11-.06-14.23-.06-21.35.01-1.45.01-1.93-.26-2.01-1.86-.22-4.45,1.31-7.73,5.43-9.66.22-.1.39-.31.72-.58-3.16-1.58-6.2-1.59-9.17-.17-1.09.52-1.89.59-3,.05-2.99-1.46-6.06-1.46-9.13.03.36.96,1.36,1.07,2.05,1.54,3.2,2.19,4.76,6.24,3.83,9.93-.17.65-.52.71-1.01.7-8.72-.33-17.52.92-26.17-1.15-1.26-.3-2.48-.74-4.03-1.2,1.17,2.74,2.17,5.37,2.43,8.21.5,5.4.11,10.8.25,16.21.02.78-.49,1.04-1.01,1.38-8.67,5.71-15.01,13.27-18.3,23.21-.33.98-.88,1.2-1.81,1.19-5.88-.03-11.77-.05-17.65.01-1.3.01-1.71-.5-2.04-1.69-4-14.42-6.29-29.11-6.93-44.06-.06-1.5-.06-3.02-.25-4.51-.2-1.54.38-2,1.87-2.09,8.82-.51,17.53-1.88,26.14-3.83,18.61-4.21,36.24-10.8,52.09-21.66.92-.63,1.51-.49,2.35.08,19.29,13.02,40.81,20.07,63.59,23.75,4.86.78,9.74,1.45,14.66,1.66,1.46.06,1.78.64,1.73,2.01-.56,16.46-2.72,32.68-7.16,48.57-.36,1.29-.85,1.75-2.2,1.75-21.83-.04-43.65-.04-65.48,0-1.32,0-1.85-.34-1.76-1.72.11-1.7.04-3.42.02-5.13,0-.7.14-1.22,1-1.18,3.48.15,6.98-.34,10.44.36,1.25.25,2.58.68,3.12,1.77,1.13,2.29,3.06,1.81,4.92,1.86.92.02,1.23-.25.93-1.2-1.25-3.9-2.47-7.81-3.67-11.73-.2-.66-.42-.99-1.11-.47-2.16,1.63-4.68,1.72-7.24,1.68-2.33-.04-4.65-.04-6.98.02-1.04.03-1.46-.27-1.43-1.37.07-2.6.09-5.2,0-7.8-.05-1.36.47-1.58,1.7-1.47,11.86,1.07,22.85,4.71,32.84,11.18,1.66,1.07,2.49,1.04,3.35-.77.73-1.53,2.56-3.11,2.33-4.38-.27-1.48-2.66-2.05-4.16-2.94-10.03-5.95-20.86-9.46-32.46-10.57-3.57-.34-3.49-.27-3.6-3.79-.06-1.7.41-2.23,2.15-2.18,4.65.12,9.3.03,13.96.05,3.21.01,6.43.02,9.64.13,2.59.09,4.77,1.05,6.23,3.36.54.85,4.99,1.45,5.68.84.34-.3.15-.63.05-.92-1.49-4.6-2.99-9.2-4.57-14.04Z"/>
  <path class="st0" d="M171.48,97.9c-1.38,4.63-3.13,9.13-5.03,13.58-13.58,31.88-34.78,57.29-64.26,75.68-1.59.99-2.73,1.04-4.35.02-33.63-21.05-56.19-50.75-68.98-88.12-.13-.38-.36-.75-.13-1.35,5.66,0,11.39.01,17.12-.01.85,0,.99.54,1.15,1.15,2.91,10.54,9.46,18.33,18.38,24.31,1.02.68,1.47,1.36,1.43,2.62-.09,3.14-.22,6.31.04,9.44.4,4.96-.98,8.79-6.18,10.79,2,1.75,4.23,1.9,6.1,1.17,3.3-1.28,6.3-1.2,9.58.02,1.86.7,4.01.46,6.18-1.15-6.52-2.23-6.66-7.35-6.35-12.69.08-1.42.01-2.84.01-4.48,5.07,1.86,10.06,3.19,15.21,3.92,3.97.56,3.96.64,3.96,4.71,0,5.95-.15,11.91.05,17.86.17,5.13-.47,9.65-6.32,11.73,1.69,1.38,3.43,1.89,4.99,1.33,4.05-1.44,7.93-1.33,11.97.03,1.55.52,3.2-.08,4.99-1.3-6.37-2.2-6.59-7.17-6.44-12.5.18-6.5.1-13,0-19.5-.02-1.63.51-2,2.05-2.18,14.3-1.61,26.93-6.85,37-17.46.54-.57,1.24-1.05,1.48-2.16-3.27,0-6.44,0-9.62,0-.69,0-1.1.5-1.58.87-8.14,6.51-17.49,9.96-27.77,11.15-1.22.14-1.55-.12-1.55-1.33.04-8.28.03-16.56.01-24.84,0-.92.04-1.52,1.27-1.52,21.75.05,43.5.07,65.26.09.06,0,.12.04.33.12Z"/>
  <path class="st0" d="M95.35,111.66c0,4.1-.02,8.2.01,12.3,0,1.04-.06,1.61-1.44,1.45-5.66-.66-11.11-2.06-16.37-4.25-1.05-.43-1.41-.98-1.4-2.11.05-6.56.06-13.12-.01-19.67-.02-1.37.41-1.7,1.72-1.68,5.26.07,10.52.07,15.78,0,1.32-.02,1.77.31,1.74,1.69-.09,4.1-.03,8.2-.03,12.3Z"/>
  <path class="st2" d="M85.84,75.57c-2.8,0-5.6-.03-8.4.02-.98.02-1.24-.31-1.29-1.28-.21-4.43-.25-4.44,3.86-5.94,4.38-1.59,8.89-2.59,13.51-3.16,1.48-.18,1.9.28,1.84,1.73-.11,2.39-.09,4.78,0,7.17.04,1.19-.37,1.52-1.52,1.49-2.66-.07-5.33-.02-7.99-.02Z"/>
  <path class="st2" d="M85.67,91.31c-2.73,0-5.46-.03-8.19.01-.95.01-1.44-.27-1.3-1.28,0-.07,0-.14,0-.2.1-2.1-.85-4.78.36-6.14,1.15-1.29,3.86-.35,5.88-.38,3.68-.07,7.37.04,11.06-.05,1.37-.03,2.03.29,1.87,1.79-.22,2.01.85,4.62-.45,5.9-1.21,1.18-3.78.26-5.74.34-1.16.05-2.32,0-3.48,0Z"/>
  <path class="st2" d="M76.18,61.55c0-3.07.02-5.93-.01-8.79,0-.83.2-1.25,1.13-1.24,5.59.03,11.19.03,16.78,0,1.01,0,1.31.42,1.27,1.35-.05,1.09-.02,2.18-.01,3.27,0,.66-.07,1.21-.93,1.28-6.2.5-12.21,1.92-18.22,4.13Z"/>
  <path class="st0" d="M66.77,114.77c-5.52-4.43-9.43-9.46-11.74-15.71-.44-1.19-.05-1.39,1.04-1.37,3.14.05,6.28.05,9.43,0,.96-.02,1.3.26,1.29,1.26-.04,5.11-.02,10.23-.02,15.82Z"/>
  <path class="st2" d="M66.77,76.11c0,4.65-.03,9.24.02,13.82.01,1.06-.29,1.43-1.38,1.41-2.94-.06-5.88-.04-8.82-.01-.96.01-1.42-.14-.95-1.25,2.36-5.51,5.87-10.15,10.54-13.9.12-.09.35-.04.58-.07Z"/>
</svg>