<svg id="Layer_1" data-name="Layer 1" xmlns="http://www.w3.org/2000/svg" viewBox="0 0 24 24"><defs><style>.cls-1{fill:#070404;}.cls-2{fill:#dfdfdf;}.cls-3{fill:#d5222d;}.cls-4{fill:#030001;}.cls-5{fill:#c8242d;}</style></defs><path class="cls-1" d="M12.51,22.2a11,11,0,0,1-3.65-.46,10,10,0,0,1-6.64-6.37A10.32,10.32,0,1,1,21.86,9.06a10.19,10.19,0,0,1-.41,6.82l-.09.26a13.31,13.31,0,0,1-1.72,2.62,10.23,10.23,0,0,1-7.13,3.44Zm1.92-.85h.1a9.66,9.66,0,0,0,5.37-3.76l.19-.28A9.43,9.43,0,0,0,21.2,8.66,9.82,9.82,0,1,0,4.41,18.2a9.69,9.69,0,0,0,6.79,3.47A7.69,7.69,0,0,0,14.43,21.35Z"/><path class="cls-2" d="M14.14,22.43v0h0v0Z"/><path class="cls-2" d="M20.73,17.93l0,0,0,0Z"/><path class="cls-3" d="M21.2,8.66A9.82,9.82,0,1,0,4.41,18.2a9.69,9.69,0,0,0,6.79,3.47,7.69,7.69,0,0,0,3.23-.32h.1a9.66,9.66,0,0,0,5.37-3.76l.19-.28A9.43,9.43,0,0,0,21.2,8.66ZM13.84,3.82c0-.2.14-.26.3-.11a10.42,10.42,0,0,0,3,1.75.63.63,0,0,1,.42.56c0,.7.1,1.39.16,2.08,0,.12.05.28-.12.3s-.23-.11-.28-.25c-.13-.42-.24-.85-.4-1.26-.25-.64-.88-.82-1.43-1.07-.13-.06-.15.06-.14.16s0,.29,0,.44c.09.73,0,1.46.11,2.18,0,.29-.06.38-.35.37-.59,0-.57,0-.6-.58a14.2,14.2,0,0,0-.21-2.76A2.93,2.93,0,0,0,14,4.69,1.32,1.32,0,0,1,13.84,3.82Zm-.63,5.26c.79,0,1.59,0,2.39,0a21.52,21.52,0,0,1,3.48.45c.8.16.83.18.93,1,0,.12,0,.23,0,.4s-.09.37-.38.39a1.09,1.09,0,0,1-1.14-.39,4,4,0,0,0-2.6-1.29,12.72,12.72,0,0,0-2.31-.21h-.41c-.15,0-.24-.07-.23-.22S13.11,9.08,13.21,9.08Zm2.46,3.63c0,.58,0,1.15,0,1.72h0c0,.5,0,1,0,1.5s0,.47-.47.51-.42-.08-.4-.39,0-.43,0-.65c0-1.78-.08-3.57-.14-5.36,0-.31,0-.44.38-.35a.8.8,0,0,0,.27,0c.2,0,.29.08.29.28s0,.57,0,.85.08.47.44.45c.83,0,.93.12.91-.9,0-.1-.08-.3.13-.27s.36.05.35.3c0,.4,0,.79,0,1.19,0,.6,0,1.19,0,1.78a1.62,1.62,0,0,1,0,.31c0,.17,0,.44-.23.44s-.2-.27-.23-.44-.06-.43-.08-.65a.78.78,0,0,0-1.08-.58C15.63,12.53,15.67,12.63,15.67,12.71ZM10.81,9.18l.71-.07c.12,0,.24,0,.24.16s-.06.23-.22.24l-.69.08c-.13,0-.3.07-.32-.16S10.65,9.19,10.81,9.18ZM8.61,19.72c0,.22-.11.34-.33.2a5.54,5.54,0,0,0-1.41-.67c-.22-.07-.26-.3-.25-.52s0-.39.22-.47.2-.2.2-.36c0-.82,0-1.64-.1-2.46-.07-1.34-.14-2.69-.09-4,0-.4.39-.47.63-.65.09-.07.22-.19.33-.13s0,.23,0,.35,0,.53,0,.79,0,.33.15.42a.52.52,0,0,0,.55,0,1,1,0,0,0,.38-.47A5.53,5.53,0,0,0,9.31,9.9a5.09,5.09,0,0,0-2.92,1.52,2.41,2.41,0,0,0,.08,3.12c.47.43.28,1,.3,1.52,0,.12-.11.07-.18.05a6.58,6.58,0,0,1-2.8-1.44,2.12,2.12,0,0,1,.09-3.25,7.19,7.19,0,0,1,2.58-1.36A19.68,19.68,0,0,1,9,9.41c.14,0,.28-.1.34.1h.07a13.08,13.08,0,0,0-.09-3.95c-.06-.25-.17-.47-.45-.49a.58.58,0,0,0-.63.41,2.65,2.65,0,0,0-.13.67c-.06,1-.11,2-.15,3.08a.33.33,0,0,1-.29.35c-.71.17-.71.17-.66-.57s.12-1.6.17-2.39c0-.3,0-.59-.34-.73-.2-.07-.19-.32-.16-.51s0-.44.29-.5a3.8,3.8,0,0,0,1.37-.74l.14-.09c.87-.53,1.37-.36,1.66.62A10.29,10.29,0,0,1,10.46,8,12.23,12.23,0,0,1,9.85,12a2.82,2.82,0,0,1-.56,1,1.28,1.28,0,0,1-1.14.44c-.23,0-.31,0-.31.29,0,1.36.07,2.72.1,4.07a1.29,1.29,0,0,0,.37,1A1.11,1.11,0,0,1,8.61,19.72Zm2.42.69c-.06.2-.17.33-.4.17a1.11,1.11,0,0,0-1-.18c-.19.06-.32,0-.36-.24a.88.88,0,0,1,.09-.66A5.05,5.05,0,0,0,10,17.35c0-.16,0-.44.34-.32.37-.08.38.14.32.43a3.22,3.22,0,0,0,.25,2.16A1.09,1.09,0,0,1,11,20.41Zm.9-3.43a26.42,26.42,0,0,1-3.55-.4c-.24,0-.46-.7-.29-.87s.12,0,.19,0a11.54,11.54,0,0,0,3.8.86.59.59,0,0,1,.23.05.22.22,0,0,1,.16.27c0,.13-.15.07-.23.08Zm2.41,3c-.07.38-.29.42-.6.38a1.61,1.61,0,0,0-.93.3c-.36.17-.5.08-.5-.32a1.42,1.42,0,0,1,.2-.72,2.39,2.39,0,0,0,.27-1.42q-.15-1.55-.27-3.09c0-.23-.12-.28-.31-.22a1.91,1.91,0,0,1-.95,0c-.18,0-.23,0-.25.2s-.11.6-.15.91-.19.27-.4.24-.3-.14-.26-.37l.42-3c.13-.94.27-1.87.39-2.81,0-.17.05-.32.23-.37.33-.1.42,0,.38.3-.12,1.08-.23,2.15-.36,3.23,0,.25.05.32.28.32.87,0,.85,0,.75-.84-.15-1.3-.27-2.6-.41-3.9-.12,0-.1.13-.2.16-.34.11-.51,0-.47-.37.16-1.51.32-3,.49-4.52a1.66,1.66,0,0,1,.26-.7c0-.07.08-.15.17-.14s.14.12.15.2c0,.27.08.54.1.82.22,2.24.42,4.49.64,6.73l.54,5.65c0,.46.1.93.14,1.39a2.69,2.69,0,0,0,.68,1.55,2.28,2.28,0,0,0,.46-1.39,4.73,4.73,0,0,0,0-.65c0-.35.11-.45.45-.45s.47.07.43.41a2.53,2.53,0,0,0,0,.55c0,.16.08.3.27.29s.45,0,.46.26a.7.7,0,0,1-.31.75,5.94,5.94,0,0,0-1.46.8C14.52,20.3,14.46,20.08,14.34,20Zm6.2-4.79A1.65,1.65,0,0,1,19,16.56a39.26,39.26,0,0,1-3.91.42h-1c-.13,0-.33.08-.32-.17s.19-.15.31-.15a11.37,11.37,0,0,0,3.07-.42,4.31,4.31,0,0,0,1.91-1.14,1.59,1.59,0,0,1,1.38-.22C20.6,15,20.57,15.06,20.54,15.17Z"/><path class="cls-4" d="M9.38,9.51a13.08,13.08,0,0,0-.09-3.95c-.06-.25-.17-.47-.45-.49a.58.58,0,0,0-.63.41,2.65,2.65,0,0,0-.13.67c-.06,1-.11,2-.15,3.08a.33.33,0,0,1-.29.35c-.71.17-.71.17-.66-.57s.12-1.6.17-2.39c0-.3,0-.59-.34-.73-.2-.07-.19-.32-.16-.51s0-.44.29-.5a3.72,3.72,0,0,0,1.37-.74l.14-.09c.86-.53,1.37-.36,1.66.62A10.29,10.29,0,0,1,10.46,8,12.23,12.23,0,0,1,9.85,12a2.82,2.82,0,0,1-.56,1,1.28,1.28,0,0,1-1.14.44c-.23,0-.31,0-.31.29,0,1.36.07,2.72.1,4.07a1.29,1.29,0,0,0,.37,1,1.11,1.11,0,0,1,.3,1c0,.22-.11.34-.33.2a5.54,5.54,0,0,0-1.41-.67c-.22-.07-.26-.3-.25-.52s0-.39.22-.47.2-.2.2-.36c0-.82,0-1.64-.1-2.46-.07-1.34-.14-2.69-.09-4,0-.4.39-.47.63-.65.09-.07.22-.19.33-.13s0,.23,0,.35,0,.53,0,.79,0,.33.15.42a.52.52,0,0,0,.55,0,1,1,0,0,0,.38-.47A5.53,5.53,0,0,0,9.31,9.9a5.09,5.09,0,0,0-2.92,1.52,2.41,2.41,0,0,0,.08,3.12c.47.43.28,1,.3,1.52,0,.12-.11.07-.18.05a6.58,6.58,0,0,1-2.8-1.44,2.12,2.12,0,0,1,.09-3.25,7.19,7.19,0,0,1,2.58-1.36A19.68,19.68,0,0,1,9,9.41c.14,0,.28-.1.34.1s0,.16,0,.25A.26.26,0,0,0,9.38,9.51Z"/><path class="cls-4" d="M11.87,8.81c-.12,0-.1.13-.2.16-.34.11-.51,0-.47-.37.16-1.51.32-3,.49-4.52a1.66,1.66,0,0,1,.26-.7c0-.07.08-.15.17-.14s.14.12.15.2c0,.27.08.54.1.82.22,2.24.42,4.49.64,6.73l.54,5.65c0,.46.1.93.14,1.39a2.69,2.69,0,0,0,.68,1.55,2.28,2.28,0,0,0,.46-1.39,4.73,4.73,0,0,0,0-.65c0-.35.11-.45.45-.45s.47.07.43.41a2.53,2.53,0,0,0,0,.55c0,.16.08.3.27.29s.45,0,.46.26a.7.7,0,0,1-.31.75,5.94,5.94,0,0,0-1.46.8c-.18.15-.24-.07-.36-.19-.07.38-.29.42-.6.38a1.61,1.61,0,0,0-.93.3c-.36.17-.5.08-.5-.32a1.42,1.42,0,0,1,.2-.72,2.39,2.39,0,0,0,.27-1.42q-.15-1.55-.27-3.09c0-.23-.12-.28-.31-.22a1.91,1.91,0,0,1-.95,0c-.18,0-.23,0-.25.2s-.11.6-.15.91-.19.27-.4.24-.3-.14-.26-.37l.42-3c.13-.94.27-1.87.39-2.81,0-.17.05-.32.23-.37.33-.1.42,0,.38.3-.12,1.08-.23,2.15-.36,3.23,0,.25.05.32.28.32.87,0,.85,0,.75-.84C12.13,11.41,12,10.11,11.87,8.81Z"/><path class="cls-4" d="M15.69,14.43c0,.5,0,1,0,1.5s0,.47-.47.51-.42-.08-.4-.39,0-.43,0-.65c0-1.78-.08-3.57-.14-5.36,0-.31,0-.44.38-.35a.8.8,0,0,0,.27,0c.2,0,.29.08.29.28s0,.57,0,.85.08.47.44.45c.83,0,.93.12.91-.9,0-.1-.08-.3.13-.27s.36.05.35.3c0,.4,0,.79,0,1.19,0,.6,0,1.19,0,1.78a1.62,1.62,0,0,1,0,.31c0,.17,0,.44-.23.44s-.2-.27-.23-.44-.06-.43-.08-.65a.78.78,0,0,0-1.08-.58c-.11.06-.07.16-.07.24,0,.58,0,1.15,0,1.72Z"/><path class="cls-4" d="M15.4,6.42c.09.73,0,1.46.11,2.18,0,.29-.06.38-.35.37-.59,0-.57,0-.6-.58a14.2,14.2,0,0,0-.21-2.76A2.93,2.93,0,0,0,14,4.69a1.32,1.32,0,0,1-.14-.87c0-.2.14-.26.3-.11a10.42,10.42,0,0,0,3,1.75.63.63,0,0,1,.42.56c0,.7.1,1.39.16,2.08,0,.12.05.28-.12.3s-.23-.11-.28-.25c-.13-.42-.24-.85-.4-1.26-.25-.64-.88-.82-1.43-1.07-.13-.06-.15.06-.14.16S15.39,6.27,15.4,6.42Z"/><path class="cls-4" d="M20.05,10.94c.08.27-.09.37-.38.39a1.09,1.09,0,0,1-1.14-.39,4,4,0,0,0-2.6-1.29,12.72,12.72,0,0,0-2.31-.21h-.41c-.15,0-.24-.07-.23-.22s.13-.14.23-.14c.79,0,1.59,0,2.39,0a21.52,21.52,0,0,1,3.48.45c.8.16.83.18.93,1C20,10.66,20,10.77,20.05,10.94Z"/><path class="cls-4" d="M15.11,17h-1c-.13,0-.33.08-.32-.17s.19-.15.31-.15a11.37,11.37,0,0,0,3.07-.42,4.31,4.31,0,0,0,1.91-1.14,1.59,1.59,0,0,1,1.38-.22c.13.08.1.19.07.3A1.65,1.65,0,0,1,19,16.56,39.26,39.26,0,0,1,15.11,17Z"/><path class="cls-4" d="M10.33,17c.37-.08.38.14.32.43a3.22,3.22,0,0,0,.25,2.16,1.09,1.09,0,0,1,.13.79c-.06.2-.17.33-.4.17a1.11,1.11,0,0,0-1-.18c-.19.06-.32,0-.36-.24a.88.88,0,0,1,.09-.66A5.05,5.05,0,0,0,10,17.35C10,17.19,10,16.91,10.33,17Z"/><path class="cls-4" d="M11.93,17a26.42,26.42,0,0,1-3.55-.4c-.24,0-.46-.7-.29-.87s.12,0,.19,0a11.54,11.54,0,0,0,3.8.86.59.59,0,0,1,.23.05.22.22,0,0,1,.16.27c0,.13-.15.07-.23.08Z"/><path class="cls-1" d="M10.85,9.59c-.13,0-.3.07-.32-.16s.12-.24.28-.25l.71-.07c.12,0,.24,0,.24.16s-.06.23-.22.24Z"/><path class="cls-5" d="M9.38,9.51a.26.26,0,0,1-.05.25c-.06-.09,0-.17,0-.25Z"/></svg>